<svg width="1200" height="525" viewBox="0 0 1200 525" fill="none" xmlns="http://www.w3.org/2000/svg">
<g clip-path="url(#clip0_245_5072)">
<rect width="1200" height="525" fill="white"/>
<path d="M855.816 -40.3301C1130.84 176.272 1262.49 463.36 1122.46 641.159C982.428 818.959 720.079 748.886 461.39 545.149C202.701 341.412 -210.583 277.522 -70.5531 99.7231C69.477 -78.0761 580.791 -256.933 855.816 -40.3301Z" fill="#F4EBEF"/>
<path d="M437.4 246C445.533 247.733 452.067 251.8 457 258.2C461.933 264.467 464.4 271.667 464.4 279.8C464.4 291.533 460.267 300.867 452 307.8C443.867 314.6 432.467 318 417.8 318H352.4V177.6H415.6C429.867 177.6 441 180.867 449 187.4C457.133 193.933 461.2 202.8 461.2 214C461.2 222.267 459 229.133 454.6 234.6C450.333 240.067 444.6 243.867 437.4 246ZM386.6 234.4H409C414.6 234.4 418.867 233.2 421.8 230.8C424.867 228.267 426.4 224.6 426.4 219.8C426.4 215 424.867 211.333 421.8 208.8C418.867 206.267 414.6 205 409 205H386.6V234.4ZM411.8 290.4C417.533 290.4 421.933 289.133 425 286.6C428.2 283.933 429.8 280.133 429.8 275.2C429.8 270.267 428.133 266.4 424.8 263.6C421.6 260.8 417.133 259.4 411.4 259.4H386.6V290.4H411.8ZM598.236 206.4L528.236 371H491.436L517.036 314.2L471.636 206.4H509.836L535.636 276.2L561.236 206.4H598.236ZM811.986 177.6V318H777.786V233.8L746.386 318H718.786L687.186 233.6V318H652.986V177.6H693.386L732.786 274.8L771.786 177.6H811.986Z" fill="black"/>
<path d="M865 320.4C860.467 320.4 856.733 318.933 853.8 316C850.867 313.067 849.4 309.333 849.4 304.8C849.4 300.267 850.867 296.533 853.8 293.6C856.733 290.667 860.467 289.2 865 289.2C869.533 289.2 873.267 290.667 876.2 293.6C879.133 296.533 880.6 300.267 880.6 304.8C880.6 309.333 879.133 313.067 876.2 316C873.267 318.933 869.533 320.4 865 320.4Z" fill="#F2ACD3"/>
</g>
<defs>
<clipPath id="clip0_245_5072">
<rect width="1200" height="525" fill="white"/>
</clipPath>
</defs>
</svg>
