<svg width="1406" height="1338" viewBox="0 0 1406 1338" fill="none" xmlns="http://www.w3.org/2000/svg">
<rect width="1406" height="1338" fill="white"/>
<g clip-path="url(#clip0_2_26)">
<path d="M18 1197.77C18 1197.77 99.71 983.48 207.74 939.27C315.77 895.06 581.68 1103.1 643.78 1077.83C703.65 1053.47 874.52 962.3 886.71 955.79C887.17 955.54 887.64 955.32 888.11 955.1L1011.04 900" fill="#C15A9D"/>
</g>
<g clip-path="url(#clip1_2_26)">
<path d="M1396.92 657.49C1396.92 657.49 1339.82 323.94 1264.34 255.12C1188.86 186.3 1003.04 510.13 959.64 470.8C917.8 432.88 798.4 290.98 789.88 280.84C789.56 280.46 789.23 280.1 788.9 279.77L703 194" fill="#80C6AA"/>
</g>
<path d="M442.754 553.356V307.651" stroke="#56328A" stroke-width="10" stroke-miterlimit="10"/>
<path d="M442.754 307.651C449.203 307.651 454.431 302.421 454.431 295.969C454.431 289.517 449.203 284.286 442.754 284.286C436.305 284.286 431.077 289.517 431.077 295.969C431.077 302.421 436.305 307.651 442.754 307.651Z" fill="#56328A" stroke="#56328A" stroke-width="10" stroke-miterlimit="10"/>
<path d="M381.293 447.895L411.96 474.76" stroke="#80C6AA" stroke-width="10" stroke-miterlimit="10"/>
<path d="M410.639 472.043L411.812 567.84" stroke="#80C6AA" stroke-width="10" stroke-miterlimit="10"/>
<path d="M382.096 421.422L382.677 450.634" stroke="#80C6AA" stroke-width="10" stroke-miterlimit="10"/>
<path d="M381.81 418.821C388.26 418.821 393.488 413.591 393.488 407.138C393.488 400.686 388.26 395.456 381.81 395.456C375.361 395.456 370.133 400.686 370.133 407.138C370.133 413.591 375.361 418.821 381.81 418.821Z" fill="#80C6AA" stroke="#80C6AA" stroke-width="10" stroke-miterlimit="10"/>
<path d="M195.746 577.694C202.195 577.694 207.423 572.463 207.423 566.011C207.423 559.559 202.195 554.329 195.746 554.329C189.297 554.329 184.069 559.559 184.069 566.011C184.069 572.463 189.297 577.694 195.746 577.694Z" fill="#56328A" stroke="#56328A" stroke-width="10" stroke-miterlimit="10"/>
<path d="M261.826 600.773L357.579 599.61" stroke="#56328A" stroke-width="10" stroke-miterlimit="10"/>
<path d="M232.754 563.939L265.45 602.486" stroke="#56328A" stroke-width="10" stroke-miterlimit="10"/>
<path d="M206.916 565.789L236.104 565.197" stroke="#56328A" stroke-width="10" stroke-miterlimit="10"/>
<path d="M357.23 627.871H111.638" stroke="#80C6AA" stroke-width="10" stroke-miterlimit="10"/>
<path d="M99.9611 639.553C106.41 639.553 111.638 634.323 111.638 627.871C111.638 621.418 106.41 616.188 99.9611 616.188C93.5119 616.188 88.2838 621.418 88.2838 627.871C88.2838 634.323 93.5119 639.553 99.9611 639.553Z" fill="#80C6AA" stroke="#80C6AA" stroke-width="10" stroke-miterlimit="10"/>
<path d="M504.12 434.384L473.464 461.248" stroke="#C15A9D" stroke-width="10" stroke-miterlimit="10"/>
<path d="M474.785 458.531L473.612 554.329" stroke="#C15A9D" stroke-width="10" stroke-miterlimit="10"/>
<path d="M503.328 407.91L502.736 437.111" stroke="#C15A9D" stroke-width="10" stroke-miterlimit="10"/>
<path d="M503.613 405.309C510.062 405.309 515.29 400.079 515.29 393.627C515.29 387.175 510.062 381.944 503.613 381.944C497.164 381.944 491.936 387.175 491.936 393.627C491.936 400.079 497.164 405.309 503.613 405.309Z" fill="#C15A9D" stroke="#C15A9D" stroke-width="10" stroke-miterlimit="10"/>
<path d="M223.317 473.016C229.766 473.016 234.994 467.785 234.994 461.333C234.994 454.881 229.766 449.65 223.317 449.65C216.868 449.65 211.64 454.881 211.64 461.333C211.64 467.785 216.868 473.016 223.317 473.016Z" fill="#C15A9D" stroke="#C15A9D" stroke-width="10" stroke-miterlimit="10"/>
<path d="M298.696 484.413L360.643 557.458" stroke="#C15A9D" stroke-width="10" stroke-miterlimit="10"/>
<path d="M251.49 486.443L302.014 485.438" stroke="#C15A9D" stroke-width="10" stroke-miterlimit="10"/>
<path d="M231.687 468.66L253.646 487.902" stroke="#C15A9D" stroke-width="10" stroke-miterlimit="10"/>
<path d="M246.904 690.365L273.767 659.683" stroke="#C15A9D" stroke-width="10" stroke-miterlimit="10"/>
<path d="M271.051 661.005L366.794 659.842" stroke="#C15A9D" stroke-width="10" stroke-miterlimit="10"/>
<path d="M220.453 689.561L249.641 688.979" stroke="#C15A9D" stroke-width="10" stroke-miterlimit="10"/>
<path d="M206.166 701.529C212.615 701.529 217.843 696.299 217.843 689.847C217.843 683.395 212.615 678.164 206.166 678.164C199.717 678.164 194.489 683.395 194.489 689.847C194.489 696.299 199.717 701.529 206.166 701.529Z" fill="#C15A9D" stroke="#C15A9D" stroke-width="10" stroke-miterlimit="10"/>
<path d="M362.144 739.209H155.483" stroke="#56328A" stroke-width="10" stroke-miterlimit="10"/>
<path d="M145.656 749.042C151.083 749.042 155.483 744.64 155.483 739.209C155.483 733.779 151.083 729.377 145.656 729.377C140.228 729.377 135.828 733.779 135.828 739.209C135.828 744.64 140.228 749.042 145.656 749.042Z" fill="#56328A" stroke="#56328A" stroke-width="10" stroke-miterlimit="10"/>
<path d="M206.872 823.911C211.03 818.98 210.405 811.609 205.476 807.449C200.546 803.289 193.179 803.914 189.021 808.846C184.863 813.777 185.488 821.148 190.417 825.308C195.347 829.468 202.714 828.843 206.872 823.911Z" fill="#80C6AA" stroke="#80C6AA" stroke-width="10" stroke-miterlimit="10"/>
<path d="M264.193 773.591L359.957 773.306" stroke="#80C6AA" stroke-width="10" stroke-miterlimit="10"/>
<path d="M235.311 810.997L267.12 771.699" stroke="#80C6AA" stroke-width="10" stroke-miterlimit="10"/>
<path d="M208.956 814.676L237.826 810.288" stroke="#80C6AA" stroke-width="10" stroke-miterlimit="10"/>
<path d="M408.941 564.114V620.736H472.01C483.277 620.736 492.395 618.646 499.364 614.464C506.449 610.167 509.991 602.617 509.991 591.815C509.991 579.852 505.345 571.954 496.053 568.121C488.039 565.449 477.818 564.114 465.39 564.114H408.941ZM408.941 663.247V731.717H472.01C483.277 731.717 492.046 730.207 498.318 727.187C509.701 721.612 515.392 710.926 515.392 695.13C515.392 681.773 509.875 672.597 498.841 667.603C492.685 664.815 484.032 663.363 472.882 663.247H408.941ZM482.464 519.512C513.94 519.977 536.241 529.095 549.366 546.866C557.264 557.784 561.213 570.85 561.213 586.066C561.213 601.746 557.264 614.348 549.366 623.872C544.952 629.215 538.448 634.094 529.853 638.507C542.978 643.269 552.85 650.819 559.471 661.156C566.207 671.494 569.576 684.038 569.576 698.789C569.576 714.004 565.743 727.652 558.077 739.731C553.199 747.745 547.101 754.482 539.783 759.941C531.537 766.213 521.78 770.511 510.514 772.834C499.364 775.157 487.226 776.318 474.101 776.318H357.72V519.512H482.464ZM618.358 812.731L624.63 813.079C629.509 813.312 634.155 813.137 638.568 812.557C642.982 811.976 646.699 810.64 649.719 808.549C652.622 806.575 655.294 802.452 657.733 796.18C660.288 789.908 661.333 786.075 660.869 784.681L591.179 586.414H646.408L687.874 726.49L727.074 586.414H779.864L714.704 773.182C702.16 809.188 692.229 831.489 684.912 840.084C677.594 848.795 662.96 853.151 641.007 853.151C636.594 853.151 633.051 853.093 630.38 852.977C627.708 852.977 623.701 852.802 618.358 852.454V812.731ZM1082.84 519.512H1160.02V776.318H1110.02V602.617C1110.02 597.623 1110.08 590.654 1110.19 581.71C1110.31 572.651 1110.37 565.682 1110.37 560.803L1061.76 776.318H1009.66L961.405 560.803C961.405 565.682 961.463 572.651 961.579 581.71C961.695 590.654 961.753 597.623 961.753 602.617V776.318H911.751V519.512H989.803L1036.5 721.438L1082.84 519.512Z" fill="#010101"/>
<defs>
<clipPath id="clip0_2_26">
<rect width="993.04" height="297.77" fill="white" transform="translate(18 900)"/>
</clipPath>
<clipPath id="clip1_2_26">
<rect width="693.92" height="463.49" fill="white" transform="translate(703 194)"/>
</clipPath>
</defs>
</svg>
