<svg width="2128" height="2030" viewBox="0 0 2128 2030" fill="none" xmlns="http://www.w3.org/2000/svg">
<g clip-path="url(#clip0_5_8)">
<path d="M0 1009.47C0 1009.47 124.36 283 288.77 133.11C453.18 -16.78 857.88 688.51 952.39 602.86C1043.51 520.28 1303.56 211.22 1322.12 189.14C1322.82 188.3 1323.53 187.53 1324.25 186.82L1511.34 0" fill="#80C6AA"/>
<path d="M148.24 1237.32C148.24 1237.32 272.6 510.85 437.01 360.96C601.42 211.07 1006.12 916.36 1100.63 830.71C1191.75 748.13 1451.8 439.07 1470.36 416.99C1471.06 416.15 1471.77 415.38 1472.49 414.67L1659.58 227.86" fill="#56328A"/>
<path d="M310.71 1499.03C310.71 1499.03 435.07 772.56 599.48 622.67C763.89 472.78 1168.59 1178.07 1263.1 1092.42C1354.22 1009.84 1614.27 700.78 1632.83 678.7C1633.53 677.86 1634.24 677.09 1634.96 676.38L1822.05 489.57" fill="#C15A9D"/>
<path d="M455.8 1763.46C455.8 1763.46 580.16 1036.99 744.57 887.1C908.98 737.21 1313.68 1442.5 1408.19 1356.85C1499.31 1274.27 1759.36 965.21 1777.92 943.13C1778.62 942.29 1779.33 941.52 1780.05 940.81L1967.14 754" fill="#A7398A"/>
<path d="M616.36 2029.07C616.36 2029.07 740.72 1302.6 905.13 1152.71C1069.54 1002.82 1474.24 1708.11 1568.75 1622.46C1659.87 1539.88 1919.92 1230.82 1938.48 1208.74C1939.18 1207.9 1939.89 1207.13 1940.61 1206.42L2127.7 1019.61" fill="#262526"/>
</g>
<defs>
<clipPath id="clip0_5_8">
<rect width="2127.7" height="2029.07" fill="white"/>
</clipPath>
</defs>
</svg>
