<svg width="93" height="54" viewBox="0 0 93 54" fill="none" xmlns="http://www.w3.org/2000/svg">
<path d="M35.22 26.6001V3.31006" stroke="#56308C" stroke-miterlimit="10"/>
<path d="M35.22 3.31009C35.833 3.31009 36.33 2.81314 36.33 2.2001C36.33 1.58707 35.833 1.09009 35.22 1.09009C34.6069 1.09009 34.11 1.58707 34.11 2.2001C34.11 2.81314 34.6069 3.31009 35.22 3.31009Z" fill="#56308C" stroke="#56308C" stroke-miterlimit="10"/>
<path d="M29.39 16.5999L32.3 19.1498" stroke="#5EF2BC" stroke-miterlimit="10"/>
<path d="M32.17 18.8899L32.28 27.9699" stroke="#5EF2BC" stroke-miterlimit="10"/>
<path d="M29.47 14.0898L29.52 16.8598" stroke="#5EF2BC" stroke-miterlimit="10"/>
<path d="M29.44 13.8499C30.0531 13.8499 30.55 13.3529 30.55 12.7399C30.55 12.1268 30.0531 11.6299 29.44 11.6299C28.827 11.6299 28.33 12.1268 28.33 12.7399C28.33 13.3529 28.827 13.8499 29.44 13.8499Z" fill="#5EF2BC" stroke="#5EF2BC" stroke-miterlimit="10"/>
<path d="M11.42 27.0401C12.0275 27.0401 12.52 26.5476 12.52 25.9401C12.52 25.3326 12.0275 24.8401 11.42 24.8401C10.8125 24.8401 10.32 25.3326 10.32 25.9401C10.32 26.5476 10.8125 27.0401 11.42 27.0401Z" fill="#56308C" stroke="#56308C" stroke-miterlimit="10"/>
<path d="M17.63 29.2101L26.65 29.1001" stroke="#56308C" stroke-miterlimit="10"/>
<path d="M14.9 25.75L17.98 29.37" stroke="#56308C" stroke-miterlimit="10"/>
<path d="M12.47 25.9201L15.21 25.8701" stroke="#56308C" stroke-miterlimit="10"/>
<path d="M26.61 31.76H3.5" stroke="#5EF2BC" stroke-miterlimit="10"/>
<path d="M2.39998 32.8599C3.00749 32.8599 3.49998 32.3674 3.49998 31.7599C3.49998 31.1524 3.00749 30.6599 2.39998 30.6599C1.79247 30.6599 1.29999 31.1524 1.29999 31.7599C1.29999 32.3674 1.79247 32.8599 2.39998 32.8599Z" fill="#5EF2BC" stroke="#5EF2BC" stroke-miterlimit="10"/>
<path d="M41.04 15.3201L38.13 17.8701" stroke="#D952B5" stroke-miterlimit="10"/>
<path d="M38.26 17.6101L38.15 26.6901" stroke="#D952B5" stroke-miterlimit="10"/>
<path d="M40.96 12.8101L40.91 15.58" stroke="#D952B5" stroke-miterlimit="10"/>
<path d="M40.99 12.5701C41.603 12.5701 42.1 12.0731 42.1 11.4601C42.1 10.847 41.603 10.3501 40.99 10.3501C40.377 10.3501 39.88 10.847 39.88 11.4601C39.88 12.0731 40.377 12.5701 40.99 12.5701Z" fill="#D952B5" stroke="#D952B5" stroke-miterlimit="10"/>
<path d="M14.41 18.99C15.023 18.99 15.52 18.4931 15.52 17.88C15.52 17.267 15.023 16.77 14.41 16.77C13.797 16.77 13.3 17.267 13.3 17.88C13.3 18.4931 13.797 18.99 14.41 18.99Z" fill="#D952B5" stroke="#D952B5" stroke-miterlimit="10"/>
<path d="M21.56 20.0701L27.43 26.9901" stroke="#D952B5" stroke-miterlimit="10"/>
<path d="M17.08 20.2602L21.87 20.1602" stroke="#D952B5" stroke-miterlimit="10"/>
<path d="M15.2 18.5701L17.28 20.4001" stroke="#D952B5" stroke-miterlimit="10"/>
<path d="M16.23 37.64L18.76 34.75" stroke="#D952B5" stroke-miterlimit="10"/>
<path d="M18.5 34.88L27.51 34.77" stroke="#D952B5" stroke-miterlimit="10"/>
<path d="M13.74 37.57L16.49 37.51" stroke="#D952B5" stroke-miterlimit="10"/>
<path d="M12.4 38.69C13.0075 38.69 13.5 38.1975 13.5 37.59C13.5 36.9825 13.0075 36.49 12.4 36.49C11.7925 36.49 11.3 36.9825 11.3 37.59C11.3 38.1975 11.7925 38.69 12.4 38.69Z" fill="#D952B5" stroke="#D952B5" stroke-miterlimit="10"/>
<path d="M27.08 42.24H7.63" stroke="#56308C" stroke-miterlimit="10"/>
<path d="M6.7 43.1601C7.2081 43.1601 7.62 42.7482 7.62 42.2401C7.62 41.7319 7.2081 41.3201 6.7 41.3201C6.1919 41.3201 5.78 41.7319 5.78 42.2401C5.78 42.7482 6.1919 43.1601 6.7 43.1601Z" fill="#56308C" stroke="#56308C" stroke-miterlimit="10"/>
<path d="M11.62 50.5901C12.2275 50.5901 12.72 50.0976 12.72 49.4901C12.72 48.8826 12.2275 48.3901 11.62 48.3901C11.0125 48.3901 10.52 48.8826 10.52 49.4901C10.52 50.0976 11.0125 50.5901 11.62 50.5901Z" fill="#5EF2BC" stroke="#5EF2BC" stroke-miterlimit="9.9997"/>
<path d="M17.86 45.4699L26.87 45.4399" stroke="#5EF2BC" stroke-miterlimit="10"/>
<path d="M15.14 48.99L18.13 45.29" stroke="#5EF2BC" stroke-miterlimit="10"/>
<path d="M12.66 49.3299L15.38 48.9199" stroke="#5EF2BC" stroke-miterlimit="10"/>
<path d="M41.4 27.85C42.06 28.77 42.39 29.87 42.39 31.15C42.39 32.47 42.06 33.53 41.39 34.33C41.02 34.78 40.47 35.19 39.74 35.56C40.84 35.96 41.67 36.6 42.23 37.46C42.79 38.33 43.07 39.38 43.07 40.62C43.07 41.9 42.75 43.05 42.11 44.06C41.7 44.73 41.19 45.3 40.58 45.76C39.89 46.29 39.08 46.65 38.14 46.84C37.2 47.03 36.19 47.13 35.09 47.13H25.36V25.54H35.79C38.43 25.59 40.3 26.35 41.4 27.85ZM29.67 29.3V34.06H34.92C35.86 34.06 36.62 33.88 37.2 33.53C37.78 33.17 38.08 32.54 38.08 31.63C38.08 30.62 37.69 29.96 36.92 29.64C36.25 29.42 35.4 29.3 34.37 29.3H29.67V29.3ZM29.67 37.63V43.39H34.91C35.85 43.39 36.58 43.26 37.1 43.01C38.05 42.54 38.52 41.64 38.52 40.31C38.52 39.19 38.06 38.42 37.14 38C36.63 37.77 35.91 37.64 34.98 37.63H29.67Z" fill="black"/>
<path d="M47.25 50.1999L47.78 50.2299C48.19 50.2499 48.58 50.2299 48.95 50.1899C49.32 50.1499 49.63 50.0299 49.89 49.8499C50.13 49.6799 50.36 49.3399 50.57 48.8099C50.78 48.2799 50.87 47.9599 50.84 47.8399L44.97 31.1699H49.61L53.1 42.9499L56.4 31.1699H60.84L55.37 46.8699C54.31 49.8999 53.48 51.7699 52.86 52.4999C52.24 53.2299 51.01 53.5899 49.16 53.5899C48.79 53.5899 48.49 53.5899 48.27 53.5799C48.05 53.5699 47.71 53.5599 47.26 53.5299V50.1999H47.25Z" fill="black"/>
<path d="M86.3 25.55H92.79V47.1401H88.59V32.5401C88.59 32.1201 88.59 31.5301 88.6 30.7801C88.61 30.0301 88.61 29.4401 88.61 29.0301L84.52 47.1501H80.14L76.08 29.0301C76.08 29.4401 76.08 30.0201 76.09 30.7801C76.1 31.5401 76.1 32.1201 76.1 32.5401V47.1401H71.9V25.55H78.47L82.4 42.5301L86.3 25.55Z" fill="black"/>
</svg>
