<svg width="259" height="257" viewBox="0 0 259 257" fill="none" xmlns="http://www.w3.org/2000/svg">
<g clip-path="url(#clip0_21_99)">
<path d="M92.586 81C85.2825 81 79.878 87.3925 80.12 94.325C80.3525 100.985 80.0505 109.611 77.879 116.646C75.701 123.701 72.017 128.17 66 128.744V135.222C72.017 135.796 75.701 140.265 77.879 147.321C80.0505 154.355 80.3525 162.98 80.12 169.641C79.878 176.572 85.2825 182.966 92.587 182.966H167.424C174.727 182.966 180.13 176.573 179.888 169.641C179.656 162.981 179.958 154.355 182.13 147.321C184.309 140.266 187.983 135.796 194 135.222V128.744C187.983 128.17 184.309 123.701 182.13 116.646C179.958 109.612 179.656 100.985 179.888 94.325C180.13 87.3935 174.727 81 167.424 81H92.585H92.586V81ZM152.78 143.766C152.78 153.312 145.66 159.102 133.844 159.102H113.729C113.154 159.101 112.602 158.873 112.195 158.466C111.789 158.059 111.56 157.507 111.56 156.932V107.034C111.56 106.749 111.616 106.467 111.725 106.204C111.834 105.94 111.994 105.701 112.195 105.5C112.397 105.298 112.636 105.138 112.899 105.029C113.162 104.92 113.445 104.864 113.729 104.864H133.729C143.581 104.864 150.048 110.201 150.048 118.396C150.048 124.147 145.697 129.296 140.156 130.197V130.498C147.7 131.326 152.78 136.55 152.78 143.766V143.766ZM131.65 111.742H120.181V127.942H129.841C137.308 127.942 141.426 124.935 141.426 119.56C141.426 114.523 137.885 111.742 131.65 111.742H131.65ZM120.181 134.369V152.222H132.073C139.847 152.222 143.965 149.102 143.965 143.239C143.965 137.375 139.732 134.368 131.573 134.368H120.181V134.369Z" fill="url(#paint0_linear_21_99)"/>
</g>
<path d="M129.5 254.5C199.621 254.5 256.5 198.107 256.5 128.5C256.5 58.8932 199.621 2.5 129.5 2.5C59.3789 2.5 2.5 58.8932 2.5 128.5C2.5 198.107 59.3789 254.5 129.5 254.5Z" stroke="url(#paint1_linear_21_99)" stroke-width="5"/>
<defs>
<linearGradient id="paint0_linear_21_99" x1="130" y1="81" x2="130" y2="182.966" gradientUnits="userSpaceOnUse">
<stop stop-color="#80C6AA"/>
<stop offset="0.3125" stop-color="#56328A"/>
<stop offset="0.739583" stop-color="#C15A9D"/>
<stop offset="1" stop-color="#A7398A"/>
</linearGradient>
<linearGradient id="paint1_linear_21_99" x1="129.5" y1="5" x2="129.5" y2="252" gradientUnits="userSpaceOnUse">
<stop stop-color="#80C6AA"/>
<stop offset="0.3125" stop-color="#56328A"/>
<stop offset="0.739583" stop-color="#C15A9D"/>
<stop offset="1" stop-color="#A7398A"/>
</linearGradient>
<clipPath id="clip0_21_99">
<rect width="128" height="102" fill="white" transform="translate(66 81)"/>
</clipPath>
</defs>
</svg>
