<svg width="259" height="257" viewBox="0 0 259 257" fill="none" xmlns="http://www.w3.org/2000/svg">
<path d="M33.2755 144.234V122.436H60.5103V121.161H33.2755V101.275H62.2322V100H32V145.509H62.4872V144.234H33.2759H33.2755ZM87.0435 112.747L75.7543 127.598L64.7198 112.748H63.0614L74.9887 128.555L61.913 145.508H63.4438L75.7536 129.51L88.1272 145.508H89.7216L76.5827 128.554L88.5736 112.747H87.0431L87.0435 112.747ZM93.549 156.726V136.331H93.6765C94.4421 139.305 95.9515 141.695 98.2051 143.501C100.459 145.307 103.329 146.21 106.815 146.21C109.069 146.21 111.068 145.753 112.811 144.84C114.554 143.926 116.011 142.683 117.18 141.111C118.349 139.539 119.242 137.712 119.859 135.63C120.475 133.548 120.784 131.359 120.784 129.065C120.784 126.6 120.465 124.327 119.827 122.245C119.189 120.163 118.264 118.357 117.053 116.827C115.841 115.297 114.374 114.107 112.651 113.258C110.929 112.408 108.984 111.983 106.815 111.983C105.157 111.983 103.616 112.227 102.191 112.716C100.767 113.205 99.5021 113.895 98.3965 114.787C97.2845 115.687 96.3165 116.751 95.5262 117.942C94.7185 119.154 94.1018 120.481 93.6765 121.926H93.549V112.747H92.2734V156.726H93.549V156.726ZM106.815 144.999C102.819 144.999 99.6081 143.628 97.1845 140.888C94.761 138.147 93.549 134.206 93.549 129.064C93.549 126.94 93.8468 124.921 94.4421 123.009C95.0374 121.097 95.8983 119.419 97.0249 117.974C98.1519 116.529 99.5446 115.382 101.203 114.532C102.861 113.682 104.732 113.257 106.815 113.257C108.941 113.257 110.802 113.682 112.396 114.532C113.991 115.382 115.309 116.54 116.351 118.006C117.392 119.472 118.179 121.15 118.711 123.041C119.242 124.932 119.508 126.94 119.508 129.064C119.508 130.977 119.264 132.878 118.774 134.769C118.286 136.66 117.531 138.359 116.51 139.868C115.49 141.376 114.183 142.608 112.588 143.565C110.993 144.521 109.069 144.999 106.815 144.999V144.999ZM127.8 145.509V126.961C127.8 125.176 128.055 123.434 128.565 121.735C129.075 120.035 129.862 118.537 130.925 117.241C131.988 115.945 133.338 114.925 134.975 114.182C136.612 113.438 138.557 113.13 140.811 113.257V111.983C138.855 111.941 137.144 112.152 135.677 112.62C134.209 113.087 132.945 113.725 131.882 114.532C130.818 115.34 129.968 116.285 129.33 117.369C128.693 118.451 128.22 119.621 127.927 120.842H127.8V112.747H126.524V145.509H127.8V145.509ZM142.405 129.383H169.831C169.917 127.131 169.693 124.964 169.162 122.882C168.63 120.8 167.78 118.951 166.611 117.337C165.441 115.722 163.932 114.426 162.082 113.449C160.232 112.471 158.032 111.983 155.481 111.983C153.652 111.983 151.866 112.365 150.123 113.13C148.38 113.895 146.849 115.01 145.531 116.476C144.213 117.942 143.15 119.737 142.342 121.862C141.534 123.987 141.13 126.409 141.13 129.128C141.13 131.55 141.406 133.813 141.959 135.916C142.512 138.019 143.362 139.847 144.51 141.398C145.659 142.949 147.136 144.149 148.943 144.999C150.75 145.849 152.929 146.252 155.481 146.21C159.222 146.21 162.369 145.158 164.92 143.055C167.472 140.951 168.981 137.988 169.449 134.163H168.173C167.621 137.775 166.206 140.484 163.932 142.29C161.657 144.096 158.797 144.999 155.353 144.999C153.014 144.999 151.037 144.595 149.421 143.788C147.806 142.981 146.487 141.875 145.467 140.473C144.447 139.071 143.692 137.425 143.203 135.534C142.714 133.643 142.448 131.593 142.405 129.383ZM168.556 128.108H142.406C142.533 125.814 142.958 123.753 143.681 121.926C144.404 120.098 145.35 118.537 146.52 117.241C147.689 115.945 149.05 114.957 150.601 114.277C152.153 113.597 153.822 113.257 155.608 113.257C157.734 113.257 159.605 113.651 161.221 114.437C162.837 115.223 164.187 116.296 165.271 117.655C166.355 119.015 167.174 120.598 167.727 122.404C168.279 124.21 168.556 126.111 168.556 128.108ZM196.301 122.436H197.576C197.576 118.781 196.513 116.126 194.388 114.468C192.261 112.811 189.37 111.983 185.713 111.983C183.672 111.983 181.95 112.238 180.547 112.748C179.144 113.257 177.995 113.916 177.102 114.723C176.21 115.53 175.572 116.423 175.189 117.4C174.806 118.378 174.615 119.313 174.615 120.205C174.615 121.989 174.934 123.413 175.572 124.475C176.21 125.538 177.209 126.366 178.569 126.961C179.505 127.386 180.568 127.768 181.759 128.109C182.949 128.448 184.331 128.809 185.904 129.192C187.307 129.532 188.689 129.872 190.05 130.212C191.411 130.552 192.612 131.008 193.654 131.582C194.696 132.156 195.546 132.889 196.205 133.781C196.864 134.673 197.194 135.842 197.194 137.286C197.194 138.689 196.864 139.879 196.205 140.856C195.552 141.828 194.691 142.644 193.686 143.246C192.665 143.862 191.528 144.308 190.273 144.584C189.019 144.861 187.797 144.999 186.606 144.999C182.737 144.999 179.771 144.138 177.708 142.418C175.646 140.696 174.615 137.988 174.615 134.291H173.339C173.339 138.413 174.456 141.429 176.688 143.342C178.92 145.254 182.226 146.21 186.606 146.21C188.009 146.21 189.423 146.05 190.848 145.732C192.272 145.413 193.548 144.893 194.674 144.17C195.791 143.458 196.73 142.498 197.417 141.366C198.118 140.218 198.469 138.816 198.469 137.159C198.469 135.587 198.161 134.312 197.545 133.335C196.928 132.358 196.12 131.55 195.121 130.913C194.121 130.275 192.995 129.776 191.74 129.415C190.479 129.052 189.214 128.701 187.945 128.363C186.384 127.954 184.821 127.55 183.257 127.152C181.918 126.812 180.674 126.409 179.526 125.941C178.421 125.474 177.538 124.805 176.879 123.933C176.22 123.062 175.891 121.82 175.891 120.205C175.891 119.908 175.976 119.376 176.146 118.611C176.316 117.846 176.72 117.071 177.358 116.285C177.995 115.499 178.973 114.798 180.292 114.182C181.61 113.566 183.417 113.257 185.713 113.257C187.286 113.257 188.721 113.428 190.018 113.767C191.315 114.107 192.431 114.649 193.367 115.393C194.302 116.136 195.025 117.082 195.535 118.229C196.045 119.377 196.301 120.779 196.301 122.436V122.436ZM225.831 122.436H227.107C227.107 118.781 226.044 116.126 223.918 114.468C221.792 112.811 218.901 111.983 215.244 111.983C213.203 111.983 211.48 112.238 210.077 112.748C208.674 113.257 207.526 113.916 206.633 114.723C205.74 115.53 205.102 116.423 204.72 117.4C204.337 118.378 204.146 119.313 204.146 120.205C204.146 121.989 204.465 123.413 205.103 124.475C205.74 125.538 206.74 126.366 208.1 126.961C209.036 127.386 210.099 127.768 211.289 128.109C212.48 128.448 213.862 128.809 215.435 129.192C216.838 129.532 218.22 129.872 219.581 130.212C220.942 130.552 222.143 131.008 223.185 131.582C224.226 132.156 225.077 132.889 225.736 133.781C226.395 134.673 226.724 135.842 226.724 137.286C226.724 138.689 226.395 139.879 225.736 140.856C225.082 141.828 224.222 142.644 223.217 143.246C222.196 143.862 221.058 144.308 219.804 144.584C218.55 144.861 217.327 144.999 216.137 144.999C212.267 144.999 209.302 144.138 207.239 142.418C205.177 140.696 204.146 137.988 204.146 134.291H202.87C202.87 138.413 203.986 141.429 206.219 143.342C208.451 145.254 211.757 146.21 216.137 146.21C217.54 146.21 218.954 146.05 220.378 145.732C221.802 145.413 223.078 144.893 224.205 144.17C225.322 143.458 226.261 142.498 226.948 141.366C227.649 140.218 228 138.816 228 137.159C228 135.587 227.692 134.312 227.075 133.335C226.459 132.358 225.651 131.55 224.652 130.913C223.652 130.275 222.525 129.776 221.271 129.415C220.01 129.052 218.745 128.701 217.476 128.363C215.915 127.954 214.352 127.55 212.788 127.152C211.449 126.812 210.205 126.409 209.057 125.941C207.951 125.474 207.069 124.805 206.41 123.933C205.751 123.062 205.421 121.82 205.421 120.205C205.421 119.908 205.506 119.376 205.677 118.611C205.847 117.846 206.251 117.071 206.888 116.285C207.526 115.499 208.504 114.798 209.822 114.182C211.141 113.566 212.947 113.257 215.244 113.257C216.817 113.257 218.252 113.428 219.549 113.767C220.846 114.107 221.962 114.649 222.897 115.393C223.833 116.136 224.556 117.082 225.066 118.229C225.576 119.377 225.832 120.779 225.832 122.436H225.831Z" fill="url(#paint0_linear_21_101)"/>
<path d="M129.5 254.5C199.621 254.5 256.5 198.107 256.5 128.5C256.5 58.8932 199.621 2.5 129.5 2.5C59.3789 2.5 2.5 58.8932 2.5 128.5C2.5 198.107 59.3789 254.5 129.5 254.5Z" stroke="url(#paint1_linear_21_101)" stroke-width="5"/>
<defs>
<linearGradient id="paint0_linear_21_101" x1="130" y1="100" x2="130" y2="156.726" gradientUnits="userSpaceOnUse">
<stop stop-color="#80C6AA"/>
<stop offset="0.3125" stop-color="#56328A"/>
<stop offset="0.739583" stop-color="#C15A9D"/>
<stop offset="1" stop-color="#A7398A"/>
</linearGradient>
<linearGradient id="paint1_linear_21_101" x1="129.5" y1="5" x2="129.5" y2="252" gradientUnits="userSpaceOnUse">
<stop stop-color="#80C6AA"/>
<stop offset="0.3125" stop-color="#56328A"/>
<stop offset="0.739583" stop-color="#C15A9D"/>
<stop offset="1" stop-color="#A7398A"/>
</linearGradient>
</defs>
</svg>
