<svg width="259" height="257" viewBox="0 0 259 257" fill="none" xmlns="http://www.w3.org/2000/svg">
<path fill-rule="evenodd" clip-rule="evenodd" d="M115.465 76C104.861 76 96.3333 84.8963 96.3333 95.7947C96.3333 102.42 99.488 108.305 104.337 111.897C101.838 113.77 99.8121 116.202 98.4222 118.998C97.0323 121.794 96.3169 124.877 96.3333 128C96.3333 134.63 99.488 140.51 104.337 144.103C101.838 145.975 99.8121 148.407 98.4222 151.203C97.0323 154 96.3169 157.083 96.3333 160.205C96.3333 171.104 104.861 180 115.465 180C126.064 180 134.597 171.104 134.597 160.205V143.47C137.948 146.264 142.172 147.796 146.535 147.799C157.139 147.795 165.667 138.898 165.667 128C165.684 124.877 164.969 121.794 163.579 118.997C162.189 116.201 160.163 113.769 157.663 111.897C160.162 110.025 162.188 107.593 163.578 104.797C164.968 102 165.683 98.9173 165.667 95.7947C165.667 84.8963 157.139 76 146.535 76H115.465V76ZM103.522 95.7947C103.522 88.9003 108.904 83.3797 115.465 83.3797H127.403V108.21H115.465C108.904 108.21 103.522 102.685 103.522 95.7947V95.7947ZM146.535 108.205H134.597V83.3753H146.535C153.1 83.3753 158.478 88.9003 158.478 95.7947C158.478 102.685 153.1 108.205 146.535 108.205ZM103.527 128C103.527 121.11 108.909 115.585 115.469 115.585H127.408V140.415H115.465C108.9 140.415 103.522 134.89 103.522 128H103.527ZM134.597 128C134.597 121.11 139.979 115.585 146.539 115.585C153.104 115.585 158.482 121.106 158.482 128C158.482 134.89 153.104 140.415 146.539 140.415C139.979 140.415 134.601 134.894 134.601 128H134.597ZM103.527 160.205C103.527 153.315 108.909 147.795 115.469 147.795H127.408V160.205C127.408 167.1 122.034 172.62 115.469 172.62C108.909 172.62 103.527 167.1 103.527 160.205Z" fill="url(#paint0_linear_21_105)"/>
<path d="M129.5 254.5C199.621 254.5 256.5 198.107 256.5 128.5C256.5 58.8932 199.621 2.5 129.5 2.5C59.3789 2.5 2.5 58.8932 2.5 128.5C2.5 198.107 59.3789 254.5 129.5 254.5Z" stroke="url(#paint1_linear_21_105)" stroke-width="5"/>
<defs>
<linearGradient id="paint0_linear_21_105" x1="131" y1="76" x2="131" y2="180" gradientUnits="userSpaceOnUse">
<stop stop-color="#80C6AA"/>
<stop offset="0.3125" stop-color="#56328A"/>
<stop offset="0.739583" stop-color="#C15A9D"/>
<stop offset="1" stop-color="#A7398A"/>
</linearGradient>
<linearGradient id="paint1_linear_21_105" x1="129.5" y1="5" x2="129.5" y2="252" gradientUnits="userSpaceOnUse">
<stop stop-color="#80C6AA"/>
<stop offset="0.3125" stop-color="#56328A"/>
<stop offset="0.739583" stop-color="#C15A9D"/>
<stop offset="1" stop-color="#A7398A"/>
</linearGradient>
</defs>
</svg>
