<svg width="259" height="257" viewBox="0 0 259 257" fill="none" xmlns="http://www.w3.org/2000/svg">
<path d="M136.063 125.677H123.209C116.725 123.976 102.055 124.419 102.055 137.801C102.055 142.679 104.487 146.106 107.729 147.689C103.66 151.418 101.731 153.177 101.731 155.667C101.731 157.45 102.456 159.094 104.631 160.013C102.318 162.187 101 163.766 101 166.732C101 171.938 105.547 174.971 117.475 174.971C128.944 174.971 135.597 170.688 135.597 163.108C135.597 153.598 128.277 153.948 111.017 152.895L113.194 149.401C117.615 150.63 132.436 151.022 132.436 138.396C132.436 135.364 131.183 133.255 130.005 131.738L136.069 131.277L136.063 125.677ZM125.782 164.891C125.782 170.088 108.778 170.094 108.778 165.285C108.778 163.965 109.632 162.853 110.492 161.793C123.089 162.652 125.782 162.339 125.782 164.891ZM117.545 143.074C108.986 143.074 109.365 131.538 117.739 131.538C125.77 131.538 125.978 143.074 117.545 143.074ZM139.154 159.368V154.164C143.49 153.571 143.57 153.84 143.57 152.381V133.007C143.57 131.629 143.238 131.811 139.154 130.371L139.879 125.035H153.523V152.384C153.523 153.439 153.588 153.571 154.579 153.704L157.939 154.164V159.368H139.154ZM147.657 119.763C143.901 119.763 141.725 117.586 141.725 113.828C141.725 110.07 143.901 108.029 147.657 108.029C151.479 108.029 153.655 110.075 153.655 113.828C153.655 117.581 151.479 119.763 147.657 119.763ZM184 156.813C181.165 158.196 177.013 159.449 173.255 159.449C165.413 159.449 162.448 156.288 162.448 148.837V131.571C162.448 130.692 162.618 130.913 157.307 130.913V125.046C163.107 124.386 165.413 121.48 166.137 114.303H172.399C172.399 124.975 172.182 124.323 172.928 124.323H182.217V130.913H172.399V146.662C172.399 147.783 171.602 154.996 182.218 151.013L184 156.813Z" fill="url(#paint0_linear_21_123)"/>
<g clip-path="url(#clip0_21_123)">
<path d="M109.622 97.2468L77.7482 65.3777C77.3118 64.9411 76.7936 64.5947 76.2233 64.3584C75.653 64.1221 75.0417 64.0005 74.4244 64.0005C73.8071 64.0005 73.1958 64.1221 72.6255 64.3584C72.0552 64.5947 71.537 64.9411 71.1006 65.3777L64.485 71.9933L72.88 80.3883C73.8701 80.0503 74.9353 79.9974 75.954 80.2357C76.9726 80.474 77.9038 80.9939 78.6412 81.7361C79.3786 82.4782 79.8925 83.4127 80.1243 84.4329C80.356 85.4532 80.2963 86.518 79.9519 87.5059L88.0412 95.5997C89.238 95.1783 90.5426 95.1771 91.7402 95.5961C92.9379 96.0151 93.9571 96.8295 94.6301 97.9052C95.3031 98.9808 95.5897 100.254 95.4428 101.514C95.2959 102.774 94.7242 103.947 93.8219 104.839C92.9084 105.758 91.7042 106.331 90.4148 106.461C89.1255 106.591 87.8311 106.269 86.7528 105.551C85.6744 104.832 84.879 103.761 84.5024 102.521C84.1257 101.282 84.1913 99.9494 84.6877 98.7524L77.1459 91.206V111.067C78.2923 111.634 79.2096 112.577 79.7448 113.739C80.2801 114.901 80.401 116.211 80.0874 117.451C79.7738 118.691 79.0447 119.786 78.0216 120.554C76.9985 121.322 75.7431 121.715 74.4648 121.67C73.1865 121.624 71.9625 121.142 70.9967 120.303C70.031 119.464 69.3818 118.32 69.1575 117.061C68.9332 115.801 69.1473 114.503 69.764 113.383C70.3808 112.262 71.363 111.387 72.5469 110.902V90.8593C71.8639 90.5794 71.243 90.1671 70.72 89.6461C70.1971 89.1251 69.7824 88.5058 69.4999 87.8238C69.2175 87.1418 69.0728 86.4106 69.0742 85.6724C69.0757 84.9343 69.2232 84.2037 69.5083 83.5228L61.2365 75.2464L39.3821 97.1008C38.9455 97.5372 38.5991 98.0554 38.3628 98.6257C38.1265 99.196 38.0049 99.8072 38.0049 100.425C38.0049 101.042 38.1265 101.653 38.3628 102.223C38.5991 102.794 38.9455 103.312 39.3821 103.748L71.2557 135.622C71.6922 136.059 72.2103 136.405 72.7806 136.641C73.3509 136.878 73.9622 136.999 74.5795 136.999C75.1969 136.999 75.8081 136.878 76.3784 136.641C76.9487 136.405 77.4669 136.059 77.9033 135.622L109.626 103.899C110.507 103.017 111.002 101.822 111.002 100.575C111.002 99.3287 110.507 98.1333 109.626 97.2514" fill="url(#paint1_linear_21_123)"/>
</g>
<path d="M129.5 254.5C199.621 254.5 256.5 198.107 256.5 128.5C256.5 58.8932 199.621 2.5 129.5 2.5C59.3789 2.5 2.5 58.8932 2.5 128.5C2.5 198.107 59.3789 254.5 129.5 254.5Z" stroke="url(#paint2_linear_21_123)" stroke-width="5"/>
<defs>
<linearGradient id="paint0_linear_21_123" x1="142.5" y1="108.029" x2="142.5" y2="174.971" gradientUnits="userSpaceOnUse">
<stop stop-color="#80C6AA"/>
<stop offset="0.3125" stop-color="#56328A"/>
<stop offset="0.739583" stop-color="#C15A9D"/>
<stop offset="1" stop-color="#A7398A"/>
</linearGradient>
<linearGradient id="paint1_linear_21_123" x1="74.5033" y1="64.0005" x2="74.5033" y2="136.999" gradientUnits="userSpaceOnUse">
<stop stop-color="#80C6AA"/>
<stop offset="0.3125" stop-color="#56328A"/>
<stop offset="0.739583" stop-color="#C15A9D"/>
<stop offset="1" stop-color="#A7398A"/>
</linearGradient>
<linearGradient id="paint2_linear_21_123" x1="129.5" y1="5" x2="129.5" y2="252" gradientUnits="userSpaceOnUse">
<stop stop-color="#80C6AA"/>
<stop offset="0.3125" stop-color="#56328A"/>
<stop offset="0.739583" stop-color="#C15A9D"/>
<stop offset="1" stop-color="#A7398A"/>
</linearGradient>
<clipPath id="clip0_21_123">
<rect width="73" height="73" fill="white" transform="translate(38 64)"/>
</clipPath>
</defs>
</svg>
