<svg width="259" height="257" viewBox="0 0 259 257" fill="none" xmlns="http://www.w3.org/2000/svg">
<path d="M130 75.3184C134.957 75.3184 139.738 75.9512 144.344 77.2168C148.949 78.4824 153.238 80.3105 157.211 82.7012C161.184 85.0918 164.822 87.9043 168.127 91.1387C171.432 94.373 174.262 98.0117 176.617 102.055C178.973 106.098 180.783 110.404 182.049 114.975C183.314 119.545 183.965 124.326 184 129.318C184 135.119 183.121 140.709 181.363 146.088C179.605 151.467 177.092 156.406 173.822 160.906C170.553 165.406 166.668 169.344 162.168 172.719C157.668 176.094 152.641 178.713 147.086 180.576C146.98 180.611 146.822 180.629 146.611 180.629C146.4 180.629 146.242 180.646 146.137 180.682C145.293 180.682 144.625 180.436 144.133 179.943C143.641 179.451 143.395 178.801 143.395 177.992V170.609C143.395 168.184 143.412 165.705 143.447 163.174C143.447 161.381 143.184 159.57 142.656 157.742C142.129 155.914 141.18 154.385 139.809 153.154C143.887 152.697 147.455 151.871 150.514 150.676C153.572 149.48 156.139 147.793 158.213 145.613C160.287 143.434 161.834 140.797 162.854 137.703C163.873 134.609 164.4 130.883 164.436 126.523C164.436 123.781 163.979 121.197 163.064 118.771C162.15 116.346 160.762 114.096 158.898 112.021C159.285 111.037 159.566 110.018 159.742 108.963C159.918 107.908 160.006 106.854 160.006 105.799C160.006 104.428 159.865 103.074 159.584 101.738C159.303 100.402 158.898 99.0664 158.371 97.7305C158.195 97.6602 158.002 97.625 157.791 97.625C157.58 97.625 157.387 97.625 157.211 97.625C156.086 97.625 154.908 97.8008 153.678 98.1523C152.447 98.5039 151.234 98.9609 150.039 99.5234C148.844 100.086 147.666 100.701 146.506 101.369C145.346 102.037 144.344 102.67 143.5 103.268C139.105 102.037 134.605 101.422 130 101.422C125.395 101.422 120.895 102.037 116.5 103.268C115.621 102.67 114.619 102.037 113.494 101.369C112.369 100.701 111.209 100.104 110.014 99.5762C108.818 99.0488 107.588 98.5918 106.322 98.2051C105.057 97.8184 103.879 97.625 102.789 97.625H102.209C101.998 97.625 101.805 97.6602 101.629 97.7305C101.137 99.0312 100.75 100.35 100.469 101.686C100.187 103.021 100.029 104.393 99.9941 105.799C99.9941 106.854 100.082 107.908 100.258 108.963C100.434 110.018 100.715 111.037 101.102 112.021C99.2383 114.061 97.8496 116.293 96.9355 118.719C96.0215 121.145 95.5645 123.746 95.5645 126.523C95.5645 130.813 96.0742 134.521 97.0938 137.65C98.1133 140.779 99.6602 143.416 101.734 145.561C103.809 147.705 106.375 149.41 109.434 150.676C112.492 151.941 116.061 152.785 120.139 153.207C119.119 154.121 118.346 155.211 117.818 156.477C117.291 157.742 116.922 159.061 116.711 160.432C115.762 160.889 114.76 161.24 113.705 161.486C112.65 161.732 111.596 161.855 110.541 161.855C108.291 161.855 106.428 161.328 104.951 160.273C103.475 159.219 102.156 157.777 100.996 155.949C100.574 155.281 100.064 154.613 99.4668 153.945C98.8691 153.277 98.2187 152.68 97.5156 152.152C96.8125 151.625 96.0566 151.203 95.248 150.887C94.4395 150.57 93.5957 150.395 92.7168 150.359H92.084C91.8027 150.359 91.5391 150.412 91.293 150.518C91.0469 150.623 90.8008 150.729 90.5547 150.834C90.3086 150.939 90.2031 151.115 90.2383 151.361C90.2383 151.783 90.4844 152.187 90.9766 152.574C91.4687 152.961 91.873 153.277 92.1895 153.523L92.3477 153.629C93.1211 154.227 93.7891 154.789 94.3516 155.316C94.9141 155.844 95.4414 156.424 95.9336 157.057C96.4258 157.689 96.8301 158.357 97.1465 159.061C97.4629 159.764 97.8672 160.59 98.3594 161.539C99.5547 164.281 101.225 166.268 103.369 167.498C105.514 168.729 108.098 169.361 111.121 169.396C112.035 169.396 112.949 169.344 113.863 169.238C114.777 169.133 115.691 168.975 116.605 168.764V177.939C116.605 178.783 116.359 179.451 115.867 179.943C115.375 180.436 114.689 180.682 113.811 180.682H113.389C113.213 180.682 113.055 180.646 112.914 180.576C107.395 178.783 102.367 176.199 97.832 172.824C93.2969 169.449 89.4121 165.494 86.1777 160.959C82.9434 156.424 80.4473 151.467 78.6895 146.088C76.9316 140.709 76.0352 135.119 76 129.318C76 124.361 76.6328 119.58 77.8984 114.975C79.1641 110.369 80.9922 106.08 83.3828 102.107C85.7734 98.1348 88.5859 94.4961 91.8203 91.1914C95.0547 87.8867 98.6934 85.0566 102.736 82.7012C106.779 80.3457 111.086 78.5352 115.656 77.2695C120.227 76.0039 125.008 75.3535 130 75.3184Z" fill="url(#paint0_linear_21_125)"/>
<path d="M129.5 254.5C199.621 254.5 256.5 198.107 256.5 128.5C256.5 58.8932 199.621 2.5 129.5 2.5C59.3789 2.5 2.5 58.8932 2.5 128.5C2.5 198.107 59.3789 254.5 129.5 254.5Z" stroke="url(#paint1_linear_21_125)" stroke-width="5"/>
<defs>
<linearGradient id="paint0_linear_21_125" x1="130" y1="75.3184" x2="130" y2="180.682" gradientUnits="userSpaceOnUse">
<stop stop-color="#80C6AA"/>
<stop offset="0.3125" stop-color="#56328A"/>
<stop offset="0.739583" stop-color="#C15A9D"/>
<stop offset="1" stop-color="#A7398A"/>
</linearGradient>
<linearGradient id="paint1_linear_21_125" x1="129.5" y1="5" x2="129.5" y2="252" gradientUnits="userSpaceOnUse">
<stop stop-color="#80C6AA"/>
<stop offset="0.3125" stop-color="#56328A"/>
<stop offset="0.739583" stop-color="#C15A9D"/>
<stop offset="1" stop-color="#A7398A"/>
</linearGradient>
</defs>
</svg>
