<svg width="259" height="257" viewBox="0 0 259 257" fill="none" xmlns="http://www.w3.org/2000/svg">
<path d="M123.752 122.602C123.327 121.285 122.945 120.01 122.52 118.692C122.095 117.375 121.713 116.142 121.373 114.91C121.033 113.72 120.735 112.615 120.438 111.595H120.352C119.97 113.422 119.503 115.25 118.908 117.077C118.27 119.117 117.633 121.242 116.953 123.367C116.358 125.535 115.72 127.532 115.082 129.317H125.877C125.622 128.421 125.283 127.362 124.9 126.253C124.518 125.11 124.135 123.877 123.752 122.602V122.602ZM162.938 78.2749H97.0625C87.075 78.2749 79 86.3499 79 96.3374V159.662C79 169.65 87.075 177.725 97.0625 177.725H162.938C172.925 177.725 181 169.65 181 159.662V96.3374C181 86.3499 172.925 78.2749 162.938 78.2749ZM141.475 148.527H132.588C132.295 148.57 131.997 148.357 131.912 148.06L128.428 137.945H112.617L109.388 147.932C109.303 148.315 108.963 148.57 108.58 148.532H100.59C100.122 148.532 99.995 148.272 100.122 147.767L113.807 108.365C113.935 107.94 114.062 107.472 114.232 106.962C114.402 106.07 114.488 105.135 114.488 104.2C114.445 103.987 114.615 103.775 114.828 103.732H125.835C126.175 103.732 126.345 103.86 126.387 104.072L141.9 147.847C142.028 148.311 141.9 148.527 141.475 148.527V148.527ZM155.925 147.89C155.925 148.357 155.759 148.57 155.377 148.57H147.043C146.618 148.57 146.405 148.311 146.405 147.89V115.165C146.405 114.74 146.579 114.57 146.962 114.57H155.377C155.759 114.57 155.925 114.782 155.925 115.165V147.89V147.89ZM155.037 109.512C154.535 110.022 153.93 110.419 153.262 110.675C152.594 110.932 151.879 111.042 151.165 111C149.762 111.042 148.403 110.49 147.378 109.512C146.405 108.448 145.886 107.044 145.933 105.602C145.891 104.157 146.443 102.797 147.459 101.82C148.487 100.842 149.847 100.332 151.25 100.332C152.912 100.332 154.178 100.842 155.117 101.82C156.052 102.84 156.562 104.2 156.52 105.602C156.562 107.047 156.053 108.45 155.037 109.512V109.512Z" fill="url(#paint0_linear_21_104)"/>
<path d="M129.5 254.5C199.621 254.5 256.5 198.107 256.5 128.5C256.5 58.8932 199.621 2.5 129.5 2.5C59.3789 2.5 2.5 58.8932 2.5 128.5C2.5 198.107 59.3789 254.5 129.5 254.5Z" stroke="url(#paint1_linear_21_104)" stroke-width="5"/>
<defs>
<linearGradient id="paint0_linear_21_104" x1="130" y1="78.2749" x2="130" y2="177.725" gradientUnits="userSpaceOnUse">
<stop stop-color="#80C6AA"/>
<stop offset="0.3125" stop-color="#56328A"/>
<stop offset="0.739583" stop-color="#C15A9D"/>
<stop offset="1" stop-color="#A7398A"/>
</linearGradient>
<linearGradient id="paint1_linear_21_104" x1="129.5" y1="5" x2="129.5" y2="252" gradientUnits="userSpaceOnUse">
<stop stop-color="#80C6AA"/>
<stop offset="0.3125" stop-color="#56328A"/>
<stop offset="0.739583" stop-color="#C15A9D"/>
<stop offset="1" stop-color="#A7398A"/>
</linearGradient>
</defs>
</svg>
