<svg width="259" height="257" viewBox="0 0 259 257" fill="none" xmlns="http://www.w3.org/2000/svg">
<path d="M172.321 73.8125H86.6786C80.231 73.8125 75 79.0615 75 85.5312V171.469C75 177.938 80.231 183.188 86.6786 183.188H172.321C178.769 183.188 184 177.938 184 171.469V85.5312C184 79.0615 178.769 73.8125 172.321 73.8125ZM134.317 159.115C134.317 169.76 128.089 174.618 119.014 174.618C110.814 174.618 106.07 170.37 103.637 165.219L111.982 160.165C113.588 163.021 115.048 165.438 118.576 165.438C121.933 165.438 124.074 164.12 124.074 158.969V124.032H134.317V159.115V159.115ZM158.55 174.618C149.037 174.618 142.882 170.077 139.889 164.12L148.234 159.286C150.424 162.875 153.295 165.536 158.331 165.536C162.565 165.536 165.29 163.412 165.29 160.458C165.29 156.942 162.516 155.697 157.821 153.622L155.266 152.523C147.869 149.374 142.979 145.395 142.979 137.021C142.979 129.306 148.843 123.446 157.967 123.446C164.487 123.446 169.158 125.717 172.516 131.674L164.536 136.801C162.784 133.651 160.886 132.406 157.942 132.406C154.95 132.406 153.052 134.311 153.052 136.801C153.052 139.877 154.95 141.122 159.353 143.051L161.908 144.149C170.618 147.885 175.509 151.718 175.509 160.312C175.509 169.54 168.258 174.618 158.55 174.618V174.618Z" fill="url(#paint0_linear_21_97)"/>
<path d="M129.5 254.5C199.621 254.5 256.5 198.107 256.5 128.5C256.5 58.8932 199.621 2.5 129.5 2.5C59.3789 2.5 2.5 58.8932 2.5 128.5C2.5 198.107 59.3789 254.5 129.5 254.5Z" stroke="url(#paint1_linear_21_97)" stroke-width="5"/>
<defs>
<linearGradient id="paint0_linear_21_97" x1="129.5" y1="73.8125" x2="129.5" y2="183.188" gradientUnits="userSpaceOnUse">
<stop stop-color="#80C6AA"/>
<stop offset="0.3125" stop-color="#56328A"/>
<stop offset="0.739583" stop-color="#C15A9D"/>
<stop offset="1" stop-color="#A7398A"/>
</linearGradient>
<linearGradient id="paint1_linear_21_97" x1="129.5" y1="5" x2="129.5" y2="252" gradientUnits="userSpaceOnUse">
<stop stop-color="#80C6AA"/>
<stop offset="0.3125" stop-color="#56328A"/>
<stop offset="0.739583" stop-color="#C15A9D"/>
<stop offset="1" stop-color="#A7398A"/>
</linearGradient>
</defs>
</svg>
