<svg width="259" height="257" viewBox="0 0 259 257" fill="none" xmlns="http://www.w3.org/2000/svg">
<g clip-path="url(#clip0_21_102)">
<path d="M151.715 86.6165C151.125 86.6165 150.732 86.6959 150.335 86.7942V86.8547H150.395C150.671 87.3652 151.125 87.7622 151.477 88.2349C151.753 88.768 151.987 89.3163 152.244 89.8495L152.324 89.7701C152.796 89.4335 153.035 88.9042 153.035 88.095C152.838 87.8568 152.796 87.6034 152.622 87.3841C152.426 87.0476 151.991 86.8736 151.715 86.6165ZM98.0893 153.14H93.4232C93.2819 145.713 92.829 138.295 92.0657 130.906H92.0279L84.9192 153.14H81.3535L74.3014 130.906H74.2409C73.6929 138.306 73.3651 145.721 73.2578 153.14H69.0039C69.2342 143.816 69.9245 134.509 71.0722 125.253H76.8613L83.5957 145.736H83.6336L90.4285 125.253H95.9415C97.1629 135.417 97.8927 144.712 98.1082 153.14H98.0893ZM118.334 132.562C116.443 142.882 113.921 150.387 110.832 155.053C108.389 158.657 105.731 160.468 102.835 160.468C102.067 160.468 101.122 160.23 99.9799 159.757V157.277C100.551 157.356 101.201 157.413 101.931 157.413C103.288 157.413 104.374 157.02 105.202 156.29C106.185 155.382 106.68 154.361 106.68 153.238C106.68 152.452 106.306 150.875 105.519 148.474L100.419 132.562H105.009L108.673 144.458C109.501 147.177 109.857 149.049 109.698 150.13C111.724 144.772 113.124 138.904 113.914 132.562H118.334ZM180.486 153.14H167.214V125.253H171.684V149.714H180.486V153.14ZM163.747 153.813L158.627 151.291C159.081 150.917 159.512 150.505 159.909 150.032C162.095 147.491 163.18 143.691 163.18 138.688C163.18 129.451 159.557 124.845 152.309 124.845C148.762 124.845 145.986 126.006 143.997 128.35C141.831 130.91 140.727 134.691 140.727 139.675C140.727 144.579 141.691 148.164 143.623 150.467C145.397 152.516 148.055 153.56 151.62 153.56C152.94 153.56 154.161 153.401 155.266 153.068L161.943 156.967L163.773 153.817L163.747 153.813ZM147.147 147.548C146.005 145.736 145.453 142.821 145.453 138.802C145.453 131.772 147.582 128.267 151.855 128.267C154.082 128.267 155.734 129.114 156.778 130.789C157.901 132.619 158.472 135.497 158.472 139.475C158.472 146.546 156.324 150.111 152.07 150.111C149.824 150.111 148.191 149.264 147.128 147.589L147.147 147.548ZM138.794 145.423C138.794 147.786 137.929 149.737 136.174 151.231C134.442 152.747 132.136 153.514 129.201 153.514C126.464 153.514 123.843 152.648 121.265 150.913L122.467 148.512C124.671 149.616 126.66 150.168 128.475 150.168C130.15 150.168 131.47 149.794 132.415 149.064C133.361 148.315 133.932 147.272 133.932 145.952C133.932 144.296 132.771 142.878 130.661 141.698C128.71 140.617 124.792 138.389 124.792 138.389C122.664 136.835 121.62 135.179 121.62 132.441C121.62 130.177 122.406 128.365 123.983 126.985C125.579 125.567 127.606 124.879 130.128 124.879C132.637 124.857 135.097 125.577 137.199 126.947L136.117 129.348C134.428 128.604 132.605 128.21 130.759 128.188C129.322 128.188 128.218 128.543 127.451 129.231C126.683 129.919 126.21 130.785 126.21 131.871C126.21 133.527 127.394 134.945 129.557 136.162C131.546 137.244 135.543 139.531 135.543 139.531C137.728 141.067 138.813 142.723 138.813 145.419L138.794 145.423ZM186.083 115.902C183.383 115.842 181.296 116.118 179.545 116.867C179.053 117.063 178.244 117.063 178.165 117.695C178.441 117.971 178.479 118.405 178.717 118.776C179.129 119.445 179.821 120.353 180.471 120.825C181.182 121.378 181.889 121.93 182.619 122.402C183.939 123.211 185.417 123.684 186.714 124.49C187.444 124.962 188.193 125.571 188.919 126.066C189.293 126.323 189.527 126.777 190 126.932V126.834C189.762 126.539 189.705 126.104 189.467 125.752C189.13 125.416 188.798 125.121 188.461 124.788C187.475 123.479 186.293 122.33 184.956 121.381C183.875 120.652 181.511 119.627 181.076 118.387L181.016 118.307C181.746 118.247 182.612 117.971 183.319 117.774C184.461 117.479 185.523 117.536 186.707 117.241C187.25 117.1 187.788 116.942 188.321 116.768V116.473C187.712 115.864 187.259 115.036 186.627 114.465C184.887 112.943 183.03 111.56 181.073 110.329C180.01 109.641 178.672 109.206 177.548 108.635C177.155 108.438 176.467 108.34 176.248 108.003C175.639 107.255 175.284 106.29 174.849 105.402C173.86 103.479 172.94 101.522 172.092 99.5333C171.483 98.2136 171.128 96.9129 170.379 95.6915C166.912 89.9591 163.131 86.4955 157.341 83.0886C156.101 82.3777 154.604 82.0828 153.027 81.7084C152.18 81.6706 151.352 81.6101 150.505 81.5723C149.953 81.3341 149.424 80.7064 148.951 80.3888C147.022 79.1674 142.058 76.547 140.659 80.0144C139.751 82.2189 141.997 84.3667 142.787 85.4708C143.358 86.2573 144.088 87.127 144.5 87.9929C144.739 88.5828 144.795 89.1953 145.034 89.8041C145.567 91.2826 146.077 92.935 146.788 94.3151C147.162 95.026 147.556 95.7709 148.028 96.4024C148.304 96.7767 148.777 96.9355 148.875 97.5443C148.403 98.2325 148.365 99.2383 148.108 100.066C146.886 103.885 147.359 108.593 149.072 111.41C149.624 112.257 150.902 114.11 152.619 113.399C154.135 112.79 153.802 110.877 154.233 109.183C154.332 108.771 154.271 108.514 154.472 108.238V108.317C154.963 109.262 155.436 110.17 155.871 111.115C156.895 112.771 158.725 114.484 160.242 115.626C161.051 116.235 161.679 117.282 162.684 117.653V117.555H162.605C162.389 117.26 162.113 117.12 161.837 116.885C161.199 116.253 160.606 115.576 160.064 114.859C158.665 112.968 157.406 110.881 156.302 108.733C155.77 107.672 155.284 106.588 154.846 105.485C154.649 105.092 154.649 104.479 154.313 104.283C153.802 105.012 153.054 105.64 152.698 106.566C152.048 108.003 151.987 109.796 151.734 111.648C151.617 111.686 151.673 111.648 151.617 111.728C150.535 111.452 150.161 110.348 149.764 109.402C148.739 107.001 148.58 103.159 149.45 100.403C149.688 99.6921 150.69 97.4687 150.297 96.7994C150.081 96.149 149.412 95.7747 149.057 95.2642C148.603 94.6328 148.149 93.8274 147.835 93.1165C147.026 91.2259 146.633 89.1386 145.748 87.248C145.355 86.3821 144.644 85.4746 144.073 84.6692C143.423 83.7617 142.716 83.1151 142.22 82.0488C142.043 81.6744 141.808 81.0656 142.084 80.6686C142.145 80.3926 142.281 80.2943 142.557 80.2149C142.992 79.8405 144.251 80.3132 144.686 80.5287C145.926 81.0203 146.97 81.4929 148.013 82.2038C148.486 82.5403 148.996 83.168 149.609 83.3457H150.32C151.401 83.5839 152.604 83.4062 153.609 83.7201C155.402 84.291 157.016 85.1191 158.472 86.0229C162.924 88.8807 166.544 92.8611 168.969 97.5632C169.381 98.3308 169.559 99.0417 169.933 99.8471C170.621 101.522 171.51 103.194 172.217 104.789C172.924 106.385 173.597 107.999 174.618 109.319C175.128 110.03 177.14 110.401 178.063 110.756C178.732 111.07 179.776 111.346 180.366 111.701C181.526 112.412 182.668 113.218 183.754 114.004C184.306 114.378 185.981 115.225 186.079 115.895L186.083 115.902Z" fill="url(#paint0_linear_21_102)"/>
</g>
<path d="M129.5 254.5C199.621 254.5 256.5 198.107 256.5 128.5C256.5 58.8932 199.621 2.5 129.5 2.5C59.3789 2.5 2.5 58.8932 2.5 128.5C2.5 198.107 59.3789 254.5 129.5 254.5Z" stroke="url(#paint1_linear_21_102)" stroke-width="5"/>
<defs>
<linearGradient id="paint0_linear_21_102" x1="129.502" y1="78.2866" x2="129.502" y2="160.468" gradientUnits="userSpaceOnUse">
<stop stop-color="#80C6AA"/>
<stop offset="0.3125" stop-color="#56328A"/>
<stop offset="0.739583" stop-color="#C15A9D"/>
<stop offset="1" stop-color="#A7398A"/>
</linearGradient>
<linearGradient id="paint1_linear_21_102" x1="129.5" y1="5" x2="129.5" y2="252" gradientUnits="userSpaceOnUse">
<stop stop-color="#80C6AA"/>
<stop offset="0.3125" stop-color="#56328A"/>
<stop offset="0.739583" stop-color="#C15A9D"/>
<stop offset="1" stop-color="#A7398A"/>
</linearGradient>
<clipPath id="clip0_21_102">
<rect width="121" height="121" fill="white" transform="translate(69 58)"/>
</clipPath>
</defs>
</svg>
