<svg width="259" height="257" viewBox="0 0 259 257" fill="none" xmlns="http://www.w3.org/2000/svg">
<path d="M128.442 184.774C127.842 184.774 127.241 184.601 126.698 184.314L121.208 181.041C120.379 180.582 120.779 180.41 121.065 180.323C122.151 179.95 122.38 179.864 123.552 179.175C123.667 179.118 123.838 179.146 123.953 179.204L128.185 181.73C128.328 181.816 128.556 181.816 128.699 181.73L145.227 172.141C145.37 172.055 145.484 171.882 145.484 171.681V152.531C145.484 152.33 145.398 152.158 145.227 152.072L128.699 142.511C128.556 142.425 128.356 142.425 128.185 142.511L111.657 152.072C111.486 152.158 111.4 152.359 111.4 152.531V171.681C111.4 171.854 111.515 172.026 111.657 172.112L116.175 174.725C118.634 175.959 120.15 174.495 120.15 173.06V154.139C120.15 153.881 120.35 153.651 120.636 153.651H122.723C122.981 153.651 123.209 153.852 123.209 154.139V173.06C123.209 176.361 121.437 178.228 118.32 178.228C117.376 178.228 116.604 178.228 114.517 177.194L110.171 174.696C109.113 174.064 108.426 172.916 108.426 171.681V152.531C108.426 151.297 109.084 150.12 110.171 149.517L126.698 139.927C127.756 139.324 129.128 139.324 130.158 139.927L146.685 149.517C147.743 150.148 148.429 151.297 148.429 152.531V171.681C148.429 172.916 147.771 174.093 146.685 174.696L130.158 184.286C129.672 184.601 129.071 184.774 128.442 184.774V184.774ZM141.795 165.882C141.795 162.293 139.393 161.346 134.304 160.656C129.157 159.967 128.642 159.623 128.642 158.417C128.642 157.412 129.071 156.091 132.874 156.091C136.277 156.091 137.535 156.838 138.05 159.135C138.107 159.364 138.278 159.508 138.507 159.508H140.652C140.795 159.508 140.909 159.451 140.995 159.364C141.08 159.25 141.138 159.135 141.109 158.991C140.766 155.029 138.164 153.192 132.874 153.192C128.156 153.192 125.354 155.201 125.354 158.532C125.354 162.178 128.156 163.154 132.674 163.614C138.078 164.159 138.507 164.934 138.507 165.997C138.507 167.863 137.02 168.638 133.532 168.638C129.157 168.638 128.185 167.547 127.87 165.365C127.842 165.135 127.641 164.963 127.384 164.963H125.24C124.982 164.963 124.753 165.164 124.753 165.451C124.753 168.236 126.269 171.567 133.503 171.567C138.793 171.567 141.795 169.499 141.795 165.882V165.882ZM157.379 151.498C157.379 153.249 155.949 154.685 154.205 154.685C152.461 154.685 151.031 153.249 151.031 151.498C151.031 149.689 152.518 148.311 154.205 148.311C155.921 148.282 157.379 149.689 157.379 151.498ZM156.864 151.498C156.864 150.005 155.663 148.828 154.176 148.828C152.718 148.828 151.517 150.005 151.517 151.498C151.517 152.991 152.718 154.197 154.176 154.197C155.663 154.168 156.864 152.962 156.864 151.498ZM155.577 153.278H154.834C154.805 153.105 154.691 152.187 154.691 152.158C154.634 151.957 154.577 151.842 154.319 151.842H153.69V153.278H153.004V149.689H154.234C154.662 149.689 155.492 149.689 155.492 150.636C155.492 151.297 155.063 151.44 154.805 151.526C155.292 151.555 155.32 151.871 155.406 152.33C155.435 152.617 155.492 153.105 155.577 153.278V153.278ZM154.777 150.751C154.777 150.263 154.434 150.263 154.262 150.263H153.69V151.268H154.234C154.691 151.268 154.777 150.952 154.777 150.751V150.751ZM77.2592 109.838C77.2592 109.063 76.8589 108.374 76.2013 108.001L58.6733 97.8657C58.3873 97.6934 58.0442 97.6073 57.7011 97.5785H57.5295C57.1864 97.5785 56.8719 97.6934 56.5573 97.8657L39.058 108.001C38.4003 108.374 38 109.092 38 109.838L38.0286 137.114C38.0286 137.487 38.2287 137.831 38.5433 138.032C38.8578 138.233 39.2581 138.233 39.6012 138.032L50.0094 132.032C50.667 131.63 51.0673 130.941 51.0673 130.194V117.447C51.0673 116.7 51.4677 115.982 52.1253 115.609L56.5573 113.054C56.9005 112.853 57.2436 112.767 57.6153 112.767C57.987 112.767 58.3588 112.853 58.6733 113.054L63.1053 115.609C63.763 115.982 64.1633 116.7 64.1633 117.447V130.194C64.1633 130.941 64.5636 131.658 65.2212 132.032L75.6294 138.032C75.9439 138.233 76.3728 138.233 76.6873 138.032C77.0019 137.86 77.202 137.487 77.202 137.114L77.2592 109.838ZM173.105 80.0649V130.711C173.105 131.457 172.705 132.175 172.047 132.548L154.52 142.712C153.862 143.085 153.061 143.085 152.404 142.712L134.876 132.548C134.218 132.175 133.818 131.457 133.818 130.711V110.384C133.818 109.637 134.218 108.919 134.876 108.546L152.404 98.3825C153.061 98.0092 153.862 98.0092 154.52 98.3825L158.894 100.909C159.38 101.196 160.01 100.823 160.01 100.277V73.2891C160.01 72.4852 160.867 71.9684 161.582 72.3703L172.019 78.2274C172.677 78.5719 173.105 79.2897 173.105 80.0649V80.0649ZM159.952 117.073C159.952 116.872 159.838 116.7 159.695 116.614L153.69 113.111C153.519 113.025 153.319 113.025 153.147 113.111L147.142 116.614C146.971 116.7 146.885 116.872 146.885 117.073V124.05C146.885 124.251 146.999 124.423 147.142 124.509L153.147 127.983C153.319 128.07 153.519 128.07 153.662 127.983L159.666 124.509C159.838 124.423 159.924 124.251 159.924 124.05V117.073H159.952ZM219.942 116.872C220.6 116.499 221 115.781 221 115.035V110.125C221 109.379 220.6 108.661 219.942 108.288L202.528 98.1241C201.871 97.7508 201.07 97.7508 200.412 98.1241L182.885 108.288C182.227 108.661 181.827 109.379 181.827 110.125V130.453C181.827 131.228 182.227 131.917 182.885 132.29L200.298 142.253C200.927 142.626 201.728 142.626 202.385 142.253L212.908 136.367C213.623 135.965 213.623 134.931 212.908 134.53L195.266 124.366C194.922 124.165 194.722 123.82 194.722 123.447V117.073C194.722 116.7 194.922 116.355 195.266 116.155L200.756 112.968C201.07 112.767 201.499 112.767 201.814 112.968L207.304 116.155C207.618 116.355 207.847 116.7 207.847 117.073V122.069C207.847 122.873 208.733 123.39 209.448 122.988L219.942 116.872V116.872ZM197.839 117.877C197.725 117.963 197.639 118.078 197.639 118.222V122.126C197.639 122.27 197.725 122.414 197.839 122.471L201.213 124.423C201.327 124.509 201.499 124.509 201.613 124.423L204.987 122.471C205.102 122.385 205.188 122.27 205.188 122.126V118.222C205.188 118.078 205.102 117.935 204.987 117.877L201.613 115.925C201.499 115.839 201.327 115.839 201.213 115.925L197.839 117.877ZM125.154 130.366V110.154C125.154 109.407 124.696 108.69 124.039 108.316L106.568 98.2102C105.967 97.8657 105.138 97.8082 104.452 98.2102L86.9811 108.316C86.3234 108.69 85.8659 109.379 85.8659 110.154V130.366C85.8659 131.17 86.4092 131.859 87.0097 132.204L104.509 142.31C105.195 142.712 105.996 142.683 106.625 142.31L124.067 132.204C124.582 131.917 124.954 131.429 125.097 130.855C125.125 130.711 125.154 130.539 125.154 130.366ZM103.909 94.5065L103.68 94.65H103.994L103.909 94.5065V94.5065ZM125.697 131.888L125.583 131.687V131.946L125.697 131.888Z" fill="url(#paint0_linear_21_100)"/>
<path d="M129.5 254.5C199.621 254.5 256.5 198.107 256.5 128.5C256.5 58.8932 199.621 2.5 129.5 2.5C59.3789 2.5 2.5 58.8932 2.5 128.5C2.5 198.107 59.3789 254.5 129.5 254.5Z" stroke="url(#paint1_linear_21_100)" stroke-width="5"/>
<defs>
<linearGradient id="paint0_linear_21_100" x1="129.5" y1="72.231" x2="129.5" y2="184.774" gradientUnits="userSpaceOnUse">
<stop stop-color="#80C6AA"/>
<stop offset="0.3125" stop-color="#56328A"/>
<stop offset="0.739583" stop-color="#C15A9D"/>
<stop offset="1" stop-color="#A7398A"/>
</linearGradient>
<linearGradient id="paint1_linear_21_100" x1="129.5" y1="5" x2="129.5" y2="252" gradientUnits="userSpaceOnUse">
<stop stop-color="#80C6AA"/>
<stop offset="0.3125" stop-color="#56328A"/>
<stop offset="0.739583" stop-color="#C15A9D"/>
<stop offset="1" stop-color="#A7398A"/>
</linearGradient>
</defs>
</svg>
