<svg width="259" height="257" viewBox="0 0 259 257" fill="none" xmlns="http://www.w3.org/2000/svg">
<path d="M120.863 116.785C119.29 116.147 117.59 115.892 115.848 115.935C114.743 115.935 113.765 115.935 112.957 115.977C112.107 115.935 111.512 115.977 111.215 116.02V130.3C111.81 130.342 112.362 130.385 112.872 130.385H115.125C116.782 130.385 118.44 130.13 120.012 129.62C121.372 129.237 122.563 128.43 123.498 127.367C124.39 126.305 124.815 124.86 124.815 122.99C124.857 121.672 124.518 120.355 123.838 119.207C123.129 118.104 122.087 117.255 120.863 116.785ZM162.938 82.2749H97.0625C87.075 82.2749 79 90.3499 79 100.337V163.658C79 173.646 87.075 181.721 97.0625 181.721H162.938C172.925 181.721 181 173.646 181 163.658V100.337C181 90.3499 172.925 82.2749 162.938 82.2749ZM131.526 131.787C129.83 134.167 127.45 135.952 124.688 136.972C121.797 138.035 118.61 138.417 115.125 138.417C114.105 138.417 113.425 138.417 113 138.375C112.575 138.332 111.98 138.332 111.173 138.332V151.971C111.215 152.268 111.003 152.527 110.705 152.57H102.46C102.12 152.57 101.95 152.396 101.95 152.013V108.285C101.95 107.987 102.077 107.817 102.375 107.817C103.098 107.817 103.777 107.817 104.755 107.775C105.775 107.732 106.838 107.732 107.985 107.69C109.133 107.647 110.365 107.647 111.683 107.605C113 107.562 114.275 107.562 115.55 107.562C119.035 107.562 121.925 107.987 124.305 108.88C126.43 109.602 128.385 110.792 130 112.365C131.36 113.725 132.422 115.382 133.102 117.21C133.736 118.995 134.076 120.822 134.076 122.735C134.08 126.39 133.23 129.407 131.526 131.787V131.787ZM161.663 148.32C160.473 150.02 158.811 151.333 156.902 152.107C154.82 152.995 152.27 153.458 149.206 153.458C147.255 153.458 145.338 153.292 143.43 152.91C141.942 152.651 140.455 152.187 139.095 151.55C138.798 151.384 138.581 151.087 138.623 150.747V143.352C138.623 143.228 138.67 143.054 138.797 142.969C138.921 142.884 139.052 142.927 139.18 143.012C140.837 143.989 142.58 144.673 144.45 145.094C146.061 145.519 147.761 145.732 149.465 145.732C151.08 145.732 152.227 145.515 152.992 145.132C153.672 144.835 154.14 144.112 154.14 143.347C154.14 142.748 153.8 142.2 153.12 141.647C152.44 141.099 151.042 140.462 148.959 139.646C146.792 138.881 144.799 137.861 142.924 136.59C141.594 135.637 140.49 134.404 139.69 132.977C139.015 131.633 138.68 130.143 138.717 128.638C138.717 126.811 139.227 125.068 140.166 123.496C141.229 121.796 142.797 120.436 144.624 119.586C146.617 118.57 149.125 118.102 152.142 118.102C153.885 118.102 155.67 118.23 157.413 118.485C158.688 118.655 159.92 118.995 161.067 119.462C161.233 119.505 161.407 119.675 161.492 119.845C161.535 120.015 161.578 120.185 161.578 120.355V127.282C161.578 127.452 161.492 127.622 161.365 127.707C160.982 127.792 160.77 127.792 160.6 127.707C159.325 127.027 157.965 126.56 156.52 126.262C154.947 125.922 153.375 125.71 151.76 125.71C150.91 125.667 150.017 125.795 149.206 126.007C148.657 126.135 148.186 126.432 147.888 126.857C147.676 127.197 147.548 127.622 147.548 128.005C147.548 128.387 147.718 128.77 147.977 129.11C148.36 129.577 148.866 129.96 149.422 130.257C150.396 130.767 151.42 131.235 152.436 131.66C154.735 132.425 156.945 133.487 158.985 134.762C160.387 135.651 161.535 136.845 162.338 138.29C163.018 139.641 163.358 141.137 163.316 142.663C163.363 144.665 162.768 146.658 161.663 148.32V148.32Z" fill="url(#paint0_linear_21_124)"/>
<path d="M129.5 254.5C199.621 254.5 256.5 198.107 256.5 128.5C256.5 58.8932 199.621 2.5 129.5 2.5C59.3789 2.5 2.5 58.8932 2.5 128.5C2.5 198.107 59.3789 254.5 129.5 254.5Z" stroke="url(#paint1_linear_21_124)" stroke-width="5"/>
<defs>
<linearGradient id="paint0_linear_21_124" x1="130" y1="82.2749" x2="130" y2="181.721" gradientUnits="userSpaceOnUse">
<stop stop-color="#80C6AA"/>
<stop offset="0.3125" stop-color="#56328A"/>
<stop offset="0.739583" stop-color="#C15A9D"/>
<stop offset="1" stop-color="#A7398A"/>
</linearGradient>
<linearGradient id="paint1_linear_21_124" x1="129.5" y1="5" x2="129.5" y2="252" gradientUnits="userSpaceOnUse">
<stop stop-color="#80C6AA"/>
<stop offset="0.3125" stop-color="#56328A"/>
<stop offset="0.739583" stop-color="#C15A9D"/>
<stop offset="1" stop-color="#A7398A"/>
</linearGradient>
</defs>
</svg>
