<svg width="259" height="257" viewBox="0 0 259 257" fill="none" xmlns="http://www.w3.org/2000/svg">
<path d="M129.5 254.5C199.621 254.5 256.5 198.107 256.5 128.5C256.5 58.8932 199.621 2.5 129.5 2.5C59.3789 2.5 2.5 58.8932 2.5 128.5C2.5 198.107 59.3789 254.5 129.5 254.5Z" stroke="url(#paint0_linear_21_94)" stroke-width="5"/>
<path d="M200 126.186C200 116.911 188.386 108.12 170.577 102.672C174.689 84.5243 172.863 70.081 164.813 65.4552C162.863 64.3627 160.655 63.8128 158.42 63.8627V70.221C159.733 70.221 160.788 70.4835 161.675 70.9677C165.554 73.196 167.24 81.666 165.928 92.5685C165.613 95.2518 165.099 98.0752 164.469 100.957C158.505 99.5197 152.453 98.481 146.351 97.8477C142.716 92.8327 138.75 88.066 134.48 83.5793C143.784 74.9343 152.517 70.1977 158.455 70.1977V63.8335C150.603 63.8335 140.331 69.4277 129.942 79.1285C119.558 69.4918 109.28 63.9502 101.434 63.9502V70.3085C107.343 70.3085 116.105 75.0218 125.409 83.6085C121.413 87.8085 117.418 92.5685 113.62 97.8477C107.506 98.474 101.442 99.5226 95.4725 100.986C94.8416 98.2548 94.3452 95.4942 93.985 92.7143C92.6433 81.806 94.3 73.336 98.1558 71.0843C99.0075 70.571 100.122 70.3377 101.434 70.3377V63.9793C99.0425 63.9793 96.8667 64.4927 94.9883 65.5718C86.9675 70.1977 85.1708 84.606 89.3067 102.701C71.5558 108.184 60 116.94 60 126.186C60 135.461 71.6142 144.252 89.4233 149.694C85.3108 167.848 87.1367 182.291 95.1867 186.911C97.0417 187.996 99.2117 188.509 101.603 188.509C109.455 188.509 119.728 182.915 130.117 173.214C140.5 182.857 150.773 188.393 158.624 188.393C160.876 188.44 163.101 187.889 165.07 186.794C173.091 182.174 174.888 167.766 170.752 149.671C188.444 144.223 200 135.432 200 126.186ZM162.842 107.152C161.733 110.966 160.449 114.727 158.992 118.422C156.607 113.783 153.988 109.268 151.146 104.894C155.2 105.495 159.108 106.236 162.848 107.152H162.842ZM149.775 137.543C147.638 141.274 145.344 144.911 142.898 148.446C134.336 149.201 125.724 149.21 117.161 148.475C112.249 141.459 107.953 134.03 104.322 126.274C107.948 118.498 112.225 111.044 117.108 103.99C125.668 103.234 134.277 103.222 142.839 103.955C145.208 107.35 147.523 110.978 149.746 114.805C151.916 118.538 153.888 122.33 155.684 126.157C153.868 130.03 151.896 133.829 149.775 137.543V137.543ZM158.992 133.833C160.532 137.654 161.85 141.481 162.929 145.191C159.196 146.107 155.253 146.877 151.175 147.472C154.006 143.058 156.614 138.507 158.992 133.833V133.833ZM130.058 164.283C127.404 161.542 124.75 158.491 122.125 155.148C124.692 155.265 127.317 155.353 129.971 155.353C132.654 155.353 135.308 155.294 137.904 155.148C135.337 158.491 132.683 161.542 130.058 164.283ZM108.825 147.472C104.892 146.902 100.987 146.151 97.1233 145.22C98.1792 141.539 99.4917 137.742 100.973 133.95C102.146 136.225 103.377 138.512 104.718 140.798C106.06 143.079 107.425 145.308 108.825 147.472ZM129.912 88.0885C132.567 90.8302 135.221 93.881 137.846 97.2235C135.279 97.1068 132.654 97.0193 130 97.0193C127.317 97.0193 124.663 97.0777 122.067 97.2235C124.633 93.881 127.287 90.8302 129.912 88.0885ZM108.796 104.9C105.966 109.304 103.357 113.846 100.979 118.509C99.4812 114.79 98.1672 111 97.0417 107.152C100.775 106.265 104.718 105.495 108.796 104.9ZM82.9717 140.623C72.8683 136.318 66.335 130.666 66.335 126.186C66.335 121.706 72.8683 116.024 82.9717 111.748C85.4217 110.693 88.105 109.748 90.8758 108.867C92.5033 114.455 94.6442 120.277 97.2925 126.244C94.7921 131.857 92.6775 137.634 90.9633 143.534C88.2535 142.695 85.5864 141.724 82.9717 140.623V140.623ZM98.325 181.398C94.4458 179.182 92.76 170.7 94.0725 159.803C94.3875 157.12 94.9008 154.291 95.5308 151.409C101.119 152.78 107.227 153.836 113.649 154.524C117.284 159.539 121.25 164.306 125.52 168.793C116.216 177.438 107.483 182.174 101.545 182.174C100.425 182.187 99.3186 181.922 98.325 181.404V181.398ZM166.015 159.658C167.357 170.56 165.7 179.036 161.844 181.288C160.993 181.801 159.878 182.028 158.566 182.028C152.657 182.028 143.895 177.321 134.591 168.729C138.843 164.261 142.782 159.505 146.38 154.495C152.494 153.869 158.558 152.82 164.528 151.357C165.187 154.238 165.694 157.003 166.015 159.658V159.658ZM176.999 140.623C174.549 141.679 171.866 142.624 169.095 143.505C167.351 137.575 165.207 131.769 162.678 126.128C165.303 120.195 167.409 114.403 169.008 108.838C171.726 109.68 174.403 110.651 177.028 111.748C187.132 116.053 193.665 121.706 193.665 126.186C193.636 130.666 187.102 136.348 176.999 140.623V140.623Z" fill="url(#paint1_linear_21_94)"/>
<path d="M129.971 139.229C133.43 139.229 136.748 137.855 139.194 135.409C141.64 132.963 143.014 129.645 143.014 126.186C143.014 122.727 141.64 119.409 139.194 116.963C136.748 114.517 133.43 113.143 129.971 113.143C126.512 113.143 123.194 114.517 120.748 116.963C118.302 119.409 116.928 122.727 116.928 126.186C116.928 129.645 118.302 132.963 120.748 135.409C123.194 137.855 126.512 139.229 129.971 139.229V139.229Z" fill="url(#paint2_linear_21_94)"/>
<defs>
<linearGradient id="paint0_linear_21_94" x1="129.5" y1="5" x2="129.5" y2="252" gradientUnits="userSpaceOnUse">
<stop stop-color="#80C6AA"/>
<stop offset="0.3125" stop-color="#56328A"/>
<stop offset="0.739583" stop-color="#C15A9D"/>
<stop offset="1" stop-color="#A7398A"/>
</linearGradient>
<linearGradient id="paint1_linear_21_94" x1="130" y1="63.8335" x2="130" y2="188.509" gradientUnits="userSpaceOnUse">
<stop stop-color="#80C6AA"/>
<stop offset="0.3125" stop-color="#56328A"/>
<stop offset="0.739583" stop-color="#C15A9D"/>
<stop offset="1" stop-color="#A7398A"/>
</linearGradient>
<linearGradient id="paint2_linear_21_94" x1="129.971" y1="113.143" x2="129.971" y2="139.229" gradientUnits="userSpaceOnUse">
<stop stop-color="#80C6AA"/>
<stop offset="0.3125" stop-color="#56328A"/>
<stop offset="0.739583" stop-color="#C15A9D"/>
<stop offset="1" stop-color="#A7398A"/>
</linearGradient>
</defs>
</svg>
