<svg width="259" height="257" viewBox="0 0 259 257" fill="none" xmlns="http://www.w3.org/2000/svg">
<g clip-path="url(#clip0_21_98)">
<path d="M182.629 136.74C177.55 136.766 173.135 137.984 169.439 139.784C168.082 137.11 166.726 134.728 166.487 132.98C166.221 130.942 165.902 129.698 166.221 127.262C166.54 124.827 167.976 121.359 167.949 121.094C167.923 120.83 167.63 119.585 164.705 119.559C161.78 119.532 159.253 120.115 158.961 120.883C158.668 121.65 158.11 123.397 157.737 125.197C157.232 127.845 151.887 137.295 148.829 142.245C147.845 140.313 146.994 138.619 146.807 137.269C146.541 135.231 146.222 133.986 146.541 131.551C146.861 129.115 148.297 125.648 148.27 125.383C148.243 125.118 147.951 123.874 145.026 123.848C142.1 123.821 139.573 124.403 139.281 125.171C138.989 125.939 138.669 127.739 138.058 129.486C137.446 131.234 130.346 147.011 128.484 151.087C127.732 152.737 126.943 154.37 126.117 155.985C126.117 155.985 126.091 156.065 126.011 156.197C125.751 156.703 125.486 157.206 125.213 157.706V157.732C124.814 158.447 124.389 159.109 124.176 159.109C124.016 159.109 123.724 157.203 124.229 154.608C125.293 149.129 127.819 140.605 127.793 140.313C127.793 140.155 128.271 138.672 126.144 137.904C124.069 137.137 123.325 138.407 123.139 138.407C122.953 138.407 122.819 138.857 122.819 138.857C122.819 138.857 125.134 129.274 118.405 129.274C114.204 129.274 108.406 133.854 105.534 137.984C102.269 139.752 99.0065 141.526 95.7471 143.305C94.1787 144.178 92.5562 145.052 91.0403 145.872C90.9337 145.767 90.8276 145.634 90.7209 145.528C82.5832 136.872 67.5315 130.757 68.1696 119.136C68.4092 114.9 69.8715 103.781 97.0771 90.2808C119.469 79.2945 137.287 82.3385 140.372 89.0891C144.786 98.7254 130.825 116.621 107.688 119.215C98.8587 120.194 94.2312 116.806 93.0615 115.535C91.8382 114.211 91.6517 114.132 91.1994 114.397C90.4552 114.794 90.9337 115.985 91.1994 116.674C91.8912 118.473 94.7365 121.65 99.55 123.212C103.805 124.589 114.15 125.357 126.676 120.538C140.691 115.138 151.647 100.128 148.43 87.5541C145.211 74.7942 123.937 70.5853 103.805 77.706C91.8382 81.9423 78.8601 88.6128 69.5258 97.2959C58.4361 107.62 56.6807 116.594 57.3987 120.353C59.9788 133.695 78.4615 142.378 85.8545 148.811C85.4821 149.023 85.1359 149.208 84.8439 149.367C81.1471 151.194 67.0524 158.526 63.5421 166.283C59.5534 175.071 64.1809 181.372 67.2389 182.219C76.7329 184.84 86.4926 180.128 91.7315 172.345C96.9704 164.562 96.3322 154.449 93.9124 149.817C93.8856 149.764 93.8594 149.711 93.8058 149.658C94.7633 149.102 95.7471 148.52 96.7047 147.964C98.4646 146.928 100.247 145.931 102.05 144.972C101.146 147.434 100.481 150.373 100.162 154.608C99.7627 159.585 101.81 166.044 104.496 168.585C105.693 169.698 107.103 169.724 108.007 169.724C111.145 169.724 112.555 167.13 114.124 164.059C116.038 160.3 117.767 155.932 117.767 155.932C117.767 155.932 115.613 167.739 121.464 167.739C123.591 167.739 125.745 164.985 126.703 163.583V163.609C126.703 163.609 126.756 163.529 126.862 163.344C127.075 163 127.208 162.788 127.208 162.788V162.736C128.059 161.253 129.974 157.891 132.819 152.305C136.489 145.105 140.026 136.104 140.026 136.104C140.026 136.104 140.346 138.302 141.435 141.955C142.074 144.099 143.403 146.455 144.467 148.731C143.616 149.923 143.084 150.584 143.084 150.584L143.111 150.611C142.419 151.511 141.675 152.49 140.85 153.444C137.951 156.885 134.495 160.83 134.016 161.968C133.457 163.318 133.59 164.297 134.654 165.092C135.425 165.674 136.808 165.753 138.218 165.674C140.824 165.488 142.659 164.853 143.563 164.456C144.972 163.953 146.621 163.185 148.163 162.047C151.009 159.956 152.737 156.964 152.578 153.02C152.498 150.85 151.78 148.679 150.903 146.64C151.169 146.27 151.408 145.899 151.674 145.528C156.168 138.99 159.652 131.815 159.652 131.815C159.652 131.815 159.972 134.012 161.062 137.666C161.594 139.519 162.684 141.531 163.641 143.49C159.413 146.905 156.806 150.876 155.876 153.47C154.201 158.288 155.503 160.459 157.977 160.962C159.093 161.2 160.689 160.67 161.859 160.167C163.349 159.691 165.104 158.871 166.78 157.652C169.625 155.562 172.364 152.649 172.204 148.705C172.125 146.905 171.646 145.131 170.981 143.41C174.571 141.929 179.199 141.108 185.102 141.796C197.761 143.278 200.261 151.14 199.782 154.45C199.303 157.759 196.644 159.559 195.767 160.115C194.889 160.671 194.597 160.856 194.676 161.253C194.782 161.835 195.208 161.809 195.953 161.703C196.99 161.518 202.601 159.029 202.84 152.94C203.24 145.158 195.793 136.66 182.629 136.74V136.74ZM84.9768 169.512C80.7747 174.065 74.9244 175.786 72.3979 174.331C69.6855 172.768 70.7492 166.044 75.9082 161.227C79.0461 158.288 83.0884 155.561 85.7746 153.894C86.386 153.523 87.2905 152.994 88.3809 152.332C88.5669 152.226 88.6735 152.173 88.6735 152.173L89.3117 151.775C91.1994 158.658 89.3915 164.721 84.9768 169.512V169.512ZM115.56 148.811C114.097 152.359 111.039 161.438 109.177 160.935C107.582 160.512 106.597 153.629 108.858 146.826C110.001 143.41 112.421 139.334 113.831 137.746C116.118 135.204 118.645 134.356 119.256 135.39C120.028 136.74 116.464 146.587 115.56 148.811V148.811ZM140.797 160.829C140.185 161.147 139.601 161.359 139.334 161.2C139.148 161.094 139.601 160.67 139.601 160.67C139.601 160.67 142.765 157.282 144.015 155.747C144.734 154.847 145.584 153.788 146.488 152.596V152.94C146.488 156.991 142.552 159.718 140.797 160.829H140.797ZM160.264 156.409C159.811 156.091 159.891 155.032 161.407 151.723C161.992 150.425 163.375 148.255 165.742 146.164C166.008 147.011 166.194 147.832 166.168 148.599C166.141 153.709 162.471 155.614 160.264 156.409Z" fill="url(#paint0_linear_21_98)"/>
</g>
<path d="M129.5 254.5C199.621 254.5 256.5 198.107 256.5 128.5C256.5 58.8932 199.621 2.5 129.5 2.5C59.3789 2.5 2.5 58.8932 2.5 128.5C2.5 198.107 59.3789 254.5 129.5 254.5Z" stroke="url(#paint1_linear_21_98)" stroke-width="5"/>
<defs>
<linearGradient id="paint0_linear_21_98" x1="130.057" y1="74.2578" x2="130.057" y2="182.948" gradientUnits="userSpaceOnUse">
<stop stop-color="#80C6AA"/>
<stop offset="0.3125" stop-color="#56328A"/>
<stop offset="0.739583" stop-color="#C15A9D"/>
<stop offset="1" stop-color="#A7398A"/>
</linearGradient>
<linearGradient id="paint1_linear_21_98" x1="129.5" y1="5" x2="129.5" y2="252" gradientUnits="userSpaceOnUse">
<stop stop-color="#80C6AA"/>
<stop offset="0.3125" stop-color="#56328A"/>
<stop offset="0.739583" stop-color="#C15A9D"/>
<stop offset="1" stop-color="#A7398A"/>
</linearGradient>
<clipPath id="clip0_21_98">
<rect width="146" height="109" fill="white" transform="translate(57 74)"/>
</clipPath>
</defs>
</svg>
