<svg width="259" height="257" viewBox="0 0 259 257" fill="none" xmlns="http://www.w3.org/2000/svg">
<path d="M129.5 254.5C199.621 254.5 256.5 198.107 256.5 128.5C256.5 58.8932 199.621 2.5 129.5 2.5C59.3789 2.5 2.5 58.8932 2.5 128.5C2.5 198.107 59.3789 254.5 129.5 254.5Z" stroke="url(#paint0_linear_21_121)" stroke-width="5"/>
<path d="M74.6172 108.113C74.7995 109.428 75.1576 110.411 75.6914 111.062C76.668 112.247 78.3411 112.84 80.7109 112.84C82.1302 112.84 83.2826 112.684 84.168 112.371C85.8477 111.772 86.6875 110.659 86.6875 109.031C86.6875 108.081 86.2708 107.345 85.4375 106.824C84.6042 106.316 83.2956 105.867 81.5117 105.477L78.4648 104.793C75.4701 104.116 73.3997 103.38 72.2539 102.586C70.3138 101.258 69.3438 99.181 69.3438 96.3555C69.3438 93.7773 70.2812 91.6354 72.1562 89.9297C74.0312 88.224 76.7852 87.3711 80.418 87.3711C83.4518 87.3711 86.0365 88.1784 88.1719 89.793C90.3203 91.3945 91.4466 93.7253 91.5508 96.7852H85.7695C85.6654 95.0534 84.9102 93.8229 83.5039 93.0938C82.5664 92.612 81.401 92.3711 80.0078 92.3711C78.4583 92.3711 77.2214 92.6836 76.2969 93.3086C75.3724 93.9336 74.9102 94.806 74.9102 95.9258C74.9102 96.9544 75.3659 97.7227 76.2773 98.2305C76.8633 98.569 78.1133 98.9661 80.0273 99.4219L84.9883 100.613C87.1628 101.134 88.8034 101.831 89.9102 102.703C91.6289 104.057 92.4883 106.017 92.4883 108.582C92.4883 111.212 91.4792 113.4 89.4609 115.145C87.4557 116.876 84.6172 117.742 80.9453 117.742C77.1953 117.742 74.2461 116.889 72.0977 115.184C69.9492 113.465 68.875 111.108 68.875 108.113H74.6172ZM109.207 103.348C109.103 102.553 108.836 101.837 108.406 101.199C107.781 100.34 106.811 99.9102 105.496 99.9102C103.621 99.9102 102.339 100.841 101.648 102.703C101.284 103.693 101.102 105.008 101.102 106.648C101.102 108.211 101.284 109.467 101.648 110.418C102.312 112.189 103.562 113.074 105.398 113.074C106.701 113.074 107.625 112.723 108.172 112.02C108.719 111.316 109.051 110.405 109.168 109.285H114.852C114.721 110.978 114.109 112.579 113.016 114.09C111.271 116.525 108.686 117.742 105.262 117.742C101.837 117.742 99.3177 116.727 97.7031 114.695C96.0885 112.664 95.2812 110.027 95.2812 106.785C95.2812 103.126 96.1732 100.281 97.957 98.25C99.7409 96.2188 102.202 95.2031 105.34 95.2031C108.009 95.2031 110.19 95.8021 111.883 97C113.589 98.1979 114.598 100.314 114.91 103.348H109.207ZM130.32 95.2031C130.424 95.2031 130.509 95.2096 130.574 95.2227C130.652 95.2227 130.815 95.2292 131.062 95.2422V100.945C130.711 100.906 130.398 100.88 130.125 100.867C129.852 100.854 129.63 100.848 129.461 100.848C127.221 100.848 125.717 101.577 124.949 103.035C124.52 103.855 124.305 105.118 124.305 106.824V117H118.699V95.7109H124.012V99.4219C124.871 98.0026 125.62 97.0326 126.258 96.5117C127.299 95.6393 128.654 95.2031 130.32 95.2031ZM139.891 95.7109V108.543C139.891 109.754 140.034 110.665 140.32 111.277C140.828 112.358 141.824 112.898 143.309 112.898C145.21 112.898 146.512 112.13 147.215 110.594C147.579 109.76 147.762 108.66 147.762 107.293V95.7109H153.406V117H147.996V113.992C147.944 114.057 147.814 114.253 147.605 114.578C147.397 114.904 147.15 115.19 146.863 115.438C145.991 116.219 145.145 116.753 144.324 117.039C143.517 117.326 142.566 117.469 141.473 117.469C138.322 117.469 136.199 116.336 135.105 114.07C134.493 112.82 134.188 110.978 134.188 108.543V95.7109H139.891ZM182.586 95.2422C183.523 95.2422 184.448 95.4245 185.359 95.7891C186.271 96.1536 187.098 96.7917 187.84 97.7031C188.439 98.4453 188.842 99.3568 189.051 100.438C189.181 101.154 189.246 102.202 189.246 103.582L189.207 117H183.504V103.445C183.504 102.638 183.374 101.974 183.113 101.453C182.618 100.464 181.707 99.9688 180.379 99.9688C178.842 99.9688 177.781 100.607 177.195 101.883C176.896 102.56 176.746 103.374 176.746 104.324V117H171.141V104.324C171.141 103.061 171.01 102.143 170.75 101.57C170.281 100.542 169.363 100.027 167.996 100.027C166.408 100.027 165.34 100.542 164.793 101.57C164.493 102.156 164.344 103.029 164.344 104.188V117H158.699V95.75H164.109V98.8555C164.799 97.7487 165.451 96.9609 166.062 96.4922C167.143 95.6589 168.543 95.2422 170.262 95.2422C171.889 95.2422 173.204 95.6003 174.207 96.3164C175.014 96.9805 175.626 97.8333 176.043 98.875C176.772 97.625 177.677 96.707 178.758 96.1211C179.904 95.5352 181.18 95.2422 182.586 95.2422Z" fill="url(#paint1_linear_21_121)"/>
<path d="M51.7129 142.408H58.2021V164H53.998V149.396C53.998 148.976 54.0029 148.39 54.0127 147.638C54.0225 146.876 54.0273 146.29 54.0273 145.88L49.9404 164H45.5605L41.5029 145.88C41.5029 146.29 41.5078 146.876 41.5176 147.638C41.5273 148.39 41.5322 148.976 41.5322 149.396V164H37.3281V142.408H43.8906L47.8164 159.386L51.7129 142.408ZM68.3535 151.051C67.3867 151.051 66.6348 151.354 66.0977 151.959C65.5703 152.564 65.2383 153.385 65.1016 154.42H71.5908C71.5225 153.316 71.1855 152.481 70.5801 151.915C69.9844 151.339 69.2422 151.051 68.3535 151.051ZM68.3535 147.608C69.6816 147.608 70.8779 147.857 71.9424 148.355C73.0068 148.854 73.8857 149.64 74.5791 150.714C75.2041 151.661 75.6094 152.76 75.7949 154.01C75.9023 154.742 75.9463 155.797 75.9268 157.174H64.999C65.0576 158.775 65.5605 159.898 66.5078 160.543C67.084 160.943 67.7773 161.144 68.5879 161.144C69.4473 161.144 70.1455 160.899 70.6826 160.411C70.9756 160.147 71.2344 159.781 71.459 159.312H75.7217C75.6143 160.26 75.1211 161.222 74.2422 162.198C72.875 163.751 70.9609 164.527 68.5 164.527C66.4688 164.527 64.6768 163.873 63.124 162.564C61.5713 161.256 60.7949 159.127 60.7949 156.178C60.7949 153.414 61.4932 151.295 62.8896 149.82C64.2959 148.346 66.1172 147.608 68.3535 147.608ZM77.1133 151.153V148.18H79.3398V143.727H83.4707V148.18H86.0635V151.153H83.4707V159.591C83.4707 160.245 83.5537 160.655 83.7197 160.821C83.8857 160.978 84.3936 161.056 85.2432 161.056C85.3701 161.056 85.502 161.056 85.6387 161.056C85.7852 161.046 85.9268 161.036 86.0635 161.026V164.146L84.0859 164.22C82.1133 164.288 80.7656 163.946 80.043 163.194C79.5742 162.716 79.3398 161.979 79.3398 160.982V151.153H77.1133ZM97.5479 147.623C98.5342 147.623 99.4277 147.794 100.229 148.136C101.039 148.478 101.703 149 102.221 149.703C102.66 150.299 102.929 150.914 103.026 151.549C103.124 152.174 103.173 153.199 103.173 154.625V164H98.9102V154.288C98.9102 153.429 98.7637 152.735 98.4707 152.208C98.0898 151.466 97.3672 151.095 96.3027 151.095C95.1992 151.095 94.3594 151.466 93.7832 152.208C93.2168 152.94 92.9336 153.99 92.9336 155.357V164H88.7734V142.481H92.9336V150.113C93.5391 149.186 94.2373 148.541 95.0283 148.18C95.8291 147.809 96.6689 147.623 97.5479 147.623ZM114.247 161.056C115.468 161.056 116.405 160.621 117.06 159.752C117.714 158.883 118.041 157.647 118.041 156.046C118.041 154.444 117.714 153.214 117.06 152.354C116.405 151.485 115.468 151.051 114.247 151.051C113.026 151.051 112.084 151.485 111.42 152.354C110.766 153.214 110.438 154.444 110.438 156.046C110.438 157.647 110.766 158.883 111.42 159.752C112.084 160.621 113.026 161.056 114.247 161.056ZM122.421 156.046C122.421 158.39 121.747 160.396 120.399 162.066C119.052 163.727 117.006 164.557 114.262 164.557C111.518 164.557 109.472 163.727 108.124 162.066C106.776 160.396 106.103 158.39 106.103 156.046C106.103 153.741 106.776 151.744 108.124 150.055C109.472 148.365 111.518 147.521 114.262 147.521C117.006 147.521 119.052 148.365 120.399 150.055C121.747 151.744 122.421 153.741 122.421 156.046ZM131.312 147.652C132.279 147.652 133.139 147.867 133.891 148.297C134.643 148.717 135.253 149.303 135.722 150.055V142.438H139.955V164H135.897V161.788C135.302 162.735 134.623 163.424 133.861 163.854C133.1 164.283 132.152 164.498 131.02 164.498C129.154 164.498 127.582 163.746 126.303 162.242C125.033 160.729 124.398 158.79 124.398 156.427C124.398 153.702 125.023 151.559 126.273 149.996C127.533 148.434 129.213 147.652 131.312 147.652ZM132.221 160.982C133.402 160.982 134.301 160.543 134.916 159.664C135.531 158.785 135.839 157.647 135.839 156.251C135.839 154.298 135.346 152.901 134.359 152.062C133.754 151.554 133.051 151.3 132.25 151.3C131.029 151.3 130.131 151.764 129.555 152.691C128.988 153.609 128.705 154.752 128.705 156.119C128.705 157.594 128.993 158.775 129.569 159.664C130.155 160.543 131.039 160.982 132.221 160.982ZM150.927 161.056C152.147 161.056 153.085 160.621 153.739 159.752C154.394 158.883 154.721 157.647 154.721 156.046C154.721 154.444 154.394 153.214 153.739 152.354C153.085 151.485 152.147 151.051 150.927 151.051C149.706 151.051 148.764 151.485 148.1 152.354C147.445 153.214 147.118 154.444 147.118 156.046C147.118 157.647 147.445 158.883 148.1 159.752C148.764 160.621 149.706 161.056 150.927 161.056ZM159.101 156.046C159.101 158.39 158.427 160.396 157.079 162.066C155.731 163.727 153.686 164.557 150.941 164.557C148.197 164.557 146.151 163.727 144.804 162.066C143.456 160.396 142.782 158.39 142.782 156.046C142.782 153.741 143.456 151.744 144.804 150.055C146.151 148.365 148.197 147.521 150.941 147.521C153.686 147.521 155.731 148.365 157.079 150.055C158.427 151.744 159.101 153.741 159.101 156.046ZM166.366 164H162.191V142.408H166.366V164ZM177.616 161.056C178.837 161.056 179.774 160.621 180.429 159.752C181.083 158.883 181.41 157.647 181.41 156.046C181.41 154.444 181.083 153.214 180.429 152.354C179.774 151.485 178.837 151.051 177.616 151.051C176.396 151.051 175.453 151.485 174.789 152.354C174.135 153.214 173.808 154.444 173.808 156.046C173.808 157.647 174.135 158.883 174.789 159.752C175.453 160.621 176.396 161.056 177.616 161.056ZM185.79 156.046C185.79 158.39 185.116 160.396 183.769 162.066C182.421 163.727 180.375 164.557 177.631 164.557C174.887 164.557 172.841 163.727 171.493 162.066C170.146 160.396 169.472 158.39 169.472 156.046C169.472 153.741 170.146 151.744 171.493 150.055C172.841 148.365 174.887 147.521 177.631 147.521C180.375 147.521 182.421 148.365 183.769 150.055C185.116 151.744 185.79 153.741 185.79 156.046ZM195.648 160.572C196.625 160.572 197.45 160.206 198.124 159.474C198.798 158.731 199.135 157.555 199.135 155.943C199.135 154.43 198.812 153.277 198.168 152.486C197.533 151.695 196.679 151.3 195.604 151.3C194.14 151.3 193.129 151.988 192.572 153.365C192.279 154.098 192.133 155.001 192.133 156.075C192.133 157.003 192.289 157.828 192.602 158.551C193.168 159.898 194.184 160.572 195.648 160.572ZM194.608 147.652C195.409 147.652 196.107 147.774 196.703 148.019C197.719 148.438 198.539 149.21 199.164 150.333V148.033H203.222V163.18C203.222 165.24 202.875 166.793 202.182 167.838C200.99 169.635 198.705 170.533 195.326 170.533C193.285 170.533 191.62 170.133 190.331 169.332C189.042 168.531 188.329 167.335 188.192 165.743H192.733C192.851 166.231 193.041 166.583 193.305 166.798C193.754 167.179 194.511 167.369 195.575 167.369C197.079 167.369 198.085 166.866 198.593 165.86C198.925 165.216 199.091 164.132 199.091 162.608V161.583C198.69 162.267 198.261 162.779 197.802 163.121C196.972 163.756 195.893 164.073 194.564 164.073C192.514 164.073 190.873 163.355 189.643 161.92C188.422 160.475 187.812 158.521 187.812 156.061C187.812 153.688 188.402 151.695 189.584 150.084C190.766 148.463 192.44 147.652 194.608 147.652ZM207.777 167.062L208.305 167.091C208.715 167.11 209.105 167.096 209.477 167.047C209.848 166.998 210.16 166.886 210.414 166.71C210.658 166.544 210.883 166.197 211.088 165.67C211.303 165.143 211.391 164.82 211.352 164.703L205.492 148.033H210.136L213.622 159.811L216.918 148.033H221.356L215.878 163.736C214.823 166.764 213.988 168.639 213.373 169.361C212.758 170.094 211.527 170.46 209.682 170.46C209.311 170.46 209.013 170.455 208.788 170.445C208.563 170.445 208.227 170.431 207.777 170.401V167.062Z" fill="url(#paint2_linear_21_121)"/>
<defs>
<linearGradient id="paint0_linear_21_121" x1="129.5" y1="5" x2="129.5" y2="252" gradientUnits="userSpaceOnUse">
<stop stop-color="#80C6AA"/>
<stop offset="0.3125" stop-color="#56328A"/>
<stop offset="0.739583" stop-color="#C15A9D"/>
<stop offset="1" stop-color="#A7398A"/>
</linearGradient>
<linearGradient id="paint1_linear_21_121" x1="129.5" y1="80" x2="129.5" y2="121" gradientUnits="userSpaceOnUse">
<stop stop-color="#80C6AA"/>
<stop offset="0.3125" stop-color="#56328A"/>
<stop offset="0.739583" stop-color="#C15A9D"/>
<stop offset="1" stop-color="#A7398A"/>
</linearGradient>
<linearGradient id="paint2_linear_21_121" x1="128.5" y1="137" x2="128.5" y2="178" gradientUnits="userSpaceOnUse">
<stop stop-color="#80C6AA"/>
<stop offset="0.3125" stop-color="#56328A"/>
<stop offset="0.739583" stop-color="#C15A9D"/>
<stop offset="1" stop-color="#A7398A"/>
</linearGradient>
</defs>
</svg>
